STARTFONT 2.1
COMMENT Copyright 2006 Sun Microsystems, Inc.  All rights reserved.
COMMENT Use is subject to license terms.
COMMENT This is a derivation of a BDF font from the X consolidation
COMMENT Originally a BSD vfont.
COMMENT Re-built BDF and ISO10646-1 from hex code originally in
COMMENT illumos usr/src/uts/common/font/12x22.c
FONT -Sun-Gallant-Demi-R-Normal--19-190-72-72-C-120-ISO10646-1
SIZE 19 72 72
FONTBOUNDINGBOX 12 22 0 -5
STARTPROPERTIES 18
FONTNAME_REGISTRY ""
FOUNDRY "Sun"
FAMILY_NAME "Gallant"
WEIGHT_NAME "Demi"
SLANT "R"
SETWIDTH_NAME "Normal"
ADD_STYLE_NAME ""
PIXEL_SIZE 19
POINT_SIZE 190
RESOLUTION_X 72
RESOLUTION_Y 72
SPACING "C"
AVERAGE_WIDTH 120
CHARSET_REGISTRY "ISO10646"
CHARSET_ENCODING "1"
FONT_ASCENT 17
FONT_DESCENT 5
DEFAULT_CHAR 65533
ENDPROPERTIES
CHARS 471
STARTCHAR char0
ENCODING 0
SWIDTH 631 0
DWIDTH 12 0
BBX 12 22 0 -5
BITMAP
0000
0000
76E0
76E0
6060
6060
0000
0000
6060
6060
6060
0000
0000
6060
6060
76E0
76E0
0000
0000
0000
0000
0000
ENDCHAR
STARTCHAR space
ENCODING 32
SWIDTH 631 0
DWIDTH 12 0
BBX 12 22 0 -5
BITMAP
0000
0000
0000
0000
0000
0000
0000
0000
0000
0000
0000
0000
0000
0000
0000
0000
0000
0000
0000
0000
0000
0000
ENDCHAR
STARTCHAR exclam
ENCODING 33
SWIDTH 631 0
DWIDTH 12 0
BBX 12 22 0 -5
BITMAP
0000
0000
0600
0600
0600
0600
0600
0600
0600
0600
0600
0600
0600
0000
0000
0600
0600
0000
0000
0000
0000
0000
ENDCHAR
STARTCHAR quotedbl
ENCODING 34
SWIDTH 631 0
DWIDTH 12 0
BBX 12 22 0 -5
BITMAP
0000
0000
1980
1980
1980
1980
1980
1980
0000
0000
0000
0000
0000
0000
0000
0000
0000
0000
0000
0000
0000
0000
ENDCHAR
STARTCHAR numbersign
ENCODING 35
SWIDTH 631 0
DWIDTH 12 0
BBX 12 22 0 -5
BITMAP
0000
0000
0330
0330
0330
0660
1FF0
1FF0
0CC0
0CC0
1980
1980
7FC0
7FC0
3300
6600
6600
0000
0000
0000
0000
0000
ENDCHAR
STARTCHAR dollar
ENCODING 36
SWIDTH 631 0
DWIDTH 12 0
BBX 12 22 0 -5
BITMAP
0000
0000
0600
1F80
3FC0
66E0
6660
6600
3E00
1F80
07C0
0660
0660
6660
7FC0
3F80
0600
0000
0000
0000
0000
0000
ENDCHAR
STARTCHAR percent
ENCODING 37
SWIDTH 631 0
DWIDTH 12 0
BBX 12 22 0 -5
BITMAP
0000
0000
0000
38C0
4CC0
4580
6580
3B00
0300
0600
0600
0C00
0DC0
1A60
1A20
3320
31C0
0000
0000
0000
0000
0000
ENDCHAR
STARTCHAR ampersand
ENCODING 38
SWIDTH 631 0
DWIDTH 12 0
BBX 12 22 0 -5
BITMAP
0000
0000
0700
0F80
18C0
18C0
18C0
0F80
1E00
3E00
7700
6360
61E0
61C0
6180
3FE0
1E60
0000
0000
0000
0000
0000
ENDCHAR
STARTCHAR quotesingle
ENCODING 39
SWIDTH 631 0
DWIDTH 12 0
BBX 12 22 0 -5
BITMAP
0000
0000
0C00
1E00
1E00
0600
0600
0C00
1800
1000
0000
0000
0000
0000
0000
0000
0000
0000
0000
0000
0000
0000
ENDCHAR
STARTCHAR parenleft
ENCODING 40
SWIDTH 631 0
DWIDTH 12 0
BBX 12 22 0 -5
BITMAP
0000
0000
0180
0300
0600
0600
0C00
0C00
0C00
0C00
0C00
0C00
0C00
0600
0600
0300
0180
0000
0000
0000
0000
0000
ENDCHAR
STARTCHAR parenright
ENCODING 41
SWIDTH 631 0
DWIDTH 12 0
BBX 12 22 0 -5
BITMAP
0000
0000
1800
0C00
0600
0600
0300
0300
0300
0300
0300
0300
0300
0600
0600
0C00
1800
0000
0000
0000
0000
0000
ENDCHAR
STARTCHAR asterisk
ENCODING 42
SWIDTH 631 0
DWIDTH 12 0
BBX 12 22 0 -5
BITMAP
0000
0000
0000
0000
0000
0000
0F00
0600
6660
76E0
1980
0000
1980
76E0
6660
0600
0F00
0000
0000
0000
0000
0000
ENDCHAR
STARTCHAR plus
ENCODING 43
SWIDTH 631 0
DWIDTH 12 0
BBX 12 22 0 -5
BITMAP
0000
0000
0000
0000
0000
0000
0000
0600
0600
0600
0600
7FE0
7FE0
0600
0600
0600
0600
0000
0000
0000
0000
0000
ENDCHAR
STARTCHAR comma
ENCODING 44
SWIDTH 631 0
DWIDTH 12 0
BBX 12 22 0 -5
BITMAP
0000
0000
0000
0000
0000
0000
0000
0000
0000
0000
0000
0000
0000
0000
0C00
1E00
1E00
0600
0600
0C00
1800
1000
ENDCHAR
STARTCHAR hyphen
ENCODING 45
SWIDTH 631 0
DWIDTH 12 0
BBX 12 22 0 -5
BITMAP
0000
0000
0000
0000
0000
0000
0000
0000
0000
0000
0000
7FE0
7FE0
0000
0000
0000
0000
0000
0000
0000
0000
0000
ENDCHAR
STARTCHAR period
ENCODING 46
SWIDTH 631 0
DWIDTH 12 0
BBX 12 22 0 -5
BITMAP
0000
0000
0000
0000
0000
0000
0000
0000
0000
0000
0000
0000
0000
0C00
1E00
1E00
0C00
0000
0000
0000
0000
0000
ENDCHAR
STARTCHAR slash
ENCODING 47
SWIDTH 631 0
DWIDTH 12 0
BBX 12 22 0 -5
BITMAP
0000
0000
0060
00C0
00C0
0180
0180
0300
0300
0600
0600
0C00
0C00
1800
1800
3000
3000
6000
0000
0000
0000
0000
ENDCHAR
STARTCHAR zero
ENCODING 48
SWIDTH 631 0
DWIDTH 12 0
BBX 12 22 0 -5
BITMAP
0000
0000
0700
0F80
1180
10C0
30C0
30C0
30C0
30C0
30C0
30C0
30C0
3080
1880
1F00
0E00
0000
0000
0000
0000
0000
ENDCHAR
STARTCHAR one
ENCODING 49
SWIDTH 631 0
DWIDTH 12 0
BBX 12 22 0 -5
BITMAP
0000
0000
0200
0600
0E00
1E00
3600
0600
0600
0600
0600
0600
0600
0600
0600
0600
3FC0
0000
0000
0000
0000
0000
ENDCHAR
STARTCHAR two
ENCODING 50
SWIDTH 631 0
DWIDTH 12 0
BBX 12 22 0 -5
BITMAP
0000
0000
1F00
3F80
61C0
40C0
00C0
00C0
00C0
0180
0300
0600
0C00
1800
3020
7FE0
7FE0
0000
0000
0000
0000
0000
ENDCHAR
STARTCHAR three
ENCODING 51
SWIDTH 631 0
DWIDTH 12 0
BBX 12 22 0 -5
BITMAP
0000
0000
0F80
1FC0
20E0
4060
0060
00E0
07C0
0FC0
00E0
0060
0060
4060
6040
3F80
1F00
0000
0000
0000
0000
0000
ENDCHAR
STARTCHAR four
ENCODING 52
SWIDTH 631 0
DWIDTH 12 0
BBX 12 22 0 -5
BITMAP
0000
0000
0180
0380
0380
0580
0580
0980
0980
1180
1180
2180
3FE0
7FE0
0180
0180
0180
0000
0000
0000
0000
0000
ENDCHAR
STARTCHAR five
ENCODING 53
SWIDTH 631 0
DWIDTH 12 0
BBX 12 22 0 -5
BITMAP
0000
0000
0FC0
0FC0
1000
1000
2000
3F80
31C0
00E0
0060
0060
0060
4060
6060
30C0
1F80
0000
0000
0000
0000
0000
ENDCHAR
STARTCHAR six
ENCODING 54
SWIDTH 631 0
DWIDTH 12 0
BBX 12 22 0 -5
BITMAP
0000
0000
0700
0C00
1800
3000
3000
6000
6780
6FC0
70E0
6060
6060
6060
7040
3F80
1F00
0000
0000
0000
0000
0000
ENDCHAR
STARTCHAR seven
ENCODING 55
SWIDTH 631 0
DWIDTH 12 0
BBX 12 22 0 -5
BITMAP
0000
0000
1FE0
3FE0
6040
0040
00C0
0080
0080
0180
0100
0100
0300
0200
0200
0600
0400
0000
0000
0000
0000
0000
ENDCHAR
STARTCHAR eight
ENCODING 56
SWIDTH 631 0
DWIDTH 12 0
BBX 12 22 0 -5
BITMAP
0000
0000
0F00
1180
30C0
30C0
30C0
1880
0D00
0600
0B00
1180
30C0
30C0
30C0
1880
0F00
0000
0000
0000
0000
0000
ENDCHAR
STARTCHAR nine
ENCODING 57
SWIDTH 631 0
DWIDTH 12 0
BBX 12 22 0 -5
BITMAP
0000
0000
0F80
11C0
20E0
6060
6060
6060
70E0
3F60
1E60
0060
00C0
00C0
0180
0700
3C00
0000
0000
0000
0000
0000
ENDCHAR
STARTCHAR colon
ENCODING 58
SWIDTH 631 0
DWIDTH 12 0
BBX 12 22 0 -5
BITMAP
0000
0000
0000
0000
0000
0000
0000
0C00
1E00
1E00
0C00
0000
0000
0C00
1E00
1E00
0C00
0000
0000
0000
0000
0000
ENDCHAR
STARTCHAR semicolon
ENCODING 59
SWIDTH 631 0
DWIDTH 12 0
BBX 12 22 0 -5
BITMAP
0000
0000
0000
0000
0000
0000
0000
0000
0C00
1E00
1E00
0C00
0000
0000
0C00
1E00
1E00
0600
0600
0C00
1800
1000
ENDCHAR
STARTCHAR less
ENCODING 60
SWIDTH 631 0
DWIDTH 12 0
BBX 12 22 0 -5
BITMAP
0000
0000
0000
0000
0000
0000
0000
0060
01C0
0700
1C00
7000
7000
1C00
0700
01C0
0060
0000
0000
0000
0000
0000
ENDCHAR
STARTCHAR equal
ENCODING 61
SWIDTH 631 0
DWIDTH 12 0
BBX 12 22 0 -5
BITMAP
0000
0000
0000
0000
0000
0000
0000
0000
0000
7FE0
7FE0
0000
0000
7FE0
7FE0
0000
0000
0000
0000
0000
0000
0000
ENDCHAR
STARTCHAR greater
ENCODING 62
SWIDTH 631 0
DWIDTH 12 0
BBX 12 22 0 -5
BITMAP
0000
0000
0000
0000
0000
0000
0000
6000
3800
0E00
0380
00E0
00E0
0380
0E00
3800
6000
0000
0000
0000
0000
0000
ENDCHAR
STARTCHAR question
ENCODING 63
SWIDTH 631 0
DWIDTH 12 0
BBX 12 22 0 -5
BITMAP
0000
0000
0F00
1F80
39C0
20C0
00C0
00C0
0180
0300
0600
0C00
0C00
0000
0000
0C00
0C00
0000
0000
0000
0000
0000
ENDCHAR
STARTCHAR at
ENCODING 64
SWIDTH 631 0
DWIDTH 12 0
BBX 12 22 0 -5
BITMAP
0000
0000
0000
0000
0000
0F80
3FC0
3060
6060
6720
6FA0
6CA0
6CA0
67E0
6000
3000
3FE0
0FE0
0000
0000
0000
0000
ENDCHAR
STARTCHAR A
ENCODING 65
SWIDTH 631 0
DWIDTH 12 0
BBX 12 22 0 -5
BITMAP
0000
0000
0000
0600
0600
0B00
0B00
0900
1180
1180
1080
3FC0
20C0
2040
4060
4060
E0F0
0000
0000
0000
0000
0000
ENDCHAR
STARTCHAR B
ENCODING 66
SWIDTH 631 0
DWIDTH 12 0
BBX 12 22 0 -5
BITMAP
0000
0000
0000
FF00
6080
60C0
60C0
60C0
6180
7F80
60C0
6060
6060
6060
6060
60C0
FF80
0000
0000
0000
0000
0000
ENDCHAR
STARTCHAR C
ENCODING 67
SWIDTH 631 0
DWIDTH 12 0
BBX 12 22 0 -5
BITMAP
0000
0000
0000
0FC0
1060
2020
2000
6000
6000
6000
6000
6000
6000
2000
3020
1840
0F80
0000
0000
0000
0000
0000
ENDCHAR
STARTCHAR D
ENCODING 68
SWIDTH 631 0
DWIDTH 12 0
BBX 12 22 0 -5
BITMAP
0000
0000
0000
FF00
61C0
60C0
6060
6060
6060
6060
6060
6060
6060
6060
6040
6180
FE00
0000
0000
0000
0000
0000
ENDCHAR
STARTCHAR E
ENCODING 69
SWIDTH 631 0
DWIDTH 12 0
BBX 12 22 0 -5
BITMAP
0000
0000
0000
7FC0
3040
3040
3000
3000
3080
3F80
3080
3000
3000
3000
3020
3020
7FE0
0000
0000
0000
0000
0000
ENDCHAR
STARTCHAR F
ENCODING 70
SWIDTH 631 0
DWIDTH 12 0
BBX 12 22 0 -5
BITMAP
0000
0000
0000
7FC0
3040
3040
3000
3000
3080
3F80
3080
3000
3000
3000
3000
3000
7800
0000
0000
0000
0000
0000
ENDCHAR
STARTCHAR G
ENCODING 71
SWIDTH 631 0
DWIDTH 12 0
BBX 12 22 0 -5
BITMAP
0000
0000
0000
0FC0
1060
2020
2000
6000
6000
6000
6000
61F0
6060
2060
3060
1860
0F80
0000
0000
0000
0000
0000
ENDCHAR
STARTCHAR H
ENCODING 72
SWIDTH 631 0
DWIDTH 12 0
BBX 12 22 0 -5
BITMAP
0000
0000
0000
F0F0
6060
6060
6060
6060
6060
7FE0
6060
6060
6060
6060
6060
6060
F0F0
0000
0000
0000
0000
0000
ENDCHAR
STARTCHAR I
ENCODING 73
SWIDTH 631 0
DWIDTH 12 0
BBX 12 22 0 -5
BITMAP
0000
0000
0000
1F80
0600
0600
0600
0600
0600
0600
0600
0600
0600
0600
0600
0600
1F80
0000
0000
0000
0000
0000
ENDCHAR
STARTCHAR J
ENCODING 74
SWIDTH 631 0
DWIDTH 12 0
BBX 12 22 0 -5
BITMAP
0000
0000
0000
1F80
0600
0600
0600
0600
0600
0600
0600
0600
0600
0600
0600
0600
0600
0600
0600
0400
3800
3000
ENDCHAR
STARTCHAR K
ENCODING 75
SWIDTH 631 0
DWIDTH 12 0
BBX 12 22 0 -5
BITMAP
0000
0000
0000
F0E0
6180
6300
6600
6C00
7800
7800
7C00
6E00
6700
6380
61C0
60E0
F070
0000
0000
0000
0000
0000
ENDCHAR
STARTCHAR L
ENCODING 76
SWIDTH 631 0
DWIDTH 12 0
BBX 12 22 0 -5
BITMAP
0000
0000
0000
7800
3000
3000
3000
3000
3000
3000
3000
3000
3000
3000
3020
3020
7FE0
0000
0000
0000
0000
0000
ENDCHAR
STARTCHAR M
ENCODING 77
SWIDTH 631 0
DWIDTH 12 0
BBX 12 22 0 -5
BITMAP
0000
0000
0000
E070
60E0
70E0
70E0
70E0
5960
5960
5960
4D60
4E60
4E60
4460
4460
E4F0
0000
0000
0000
0000
0000
ENDCHAR
STARTCHAR N
ENCODING 78
SWIDTH 631 0
DWIDTH 12 0
BBX 12 22 0 -5
BITMAP
0000
0000
0000
C070
6020
7020
7820
5820
4C20
4620
4720
4320
41A0
40E0
40E0
4060
E030
0000
0000
0000
0000
0000
ENDCHAR
STARTCHAR O
ENCODING 79
SWIDTH 631 0
DWIDTH 12 0
BBX 12 22 0 -5
BITMAP
0000
0000
0000
0F00
11C0
20C0
2060
6060
6060
6060
6060
6060
6060
2040
3040
1880
0F00
0000
0000
0000
0000
0000
ENDCHAR
STARTCHAR P
ENCODING 80
SWIDTH 631 0
DWIDTH 12 0
BBX 12 22 0 -5
BITMAP
0000
0000
0000
7F80
30C0
3060
3060
3060
30C0
3780
3000
3000
3000
3000
3000
3000
7800
0000
0000
0000
0000
0000
ENDCHAR
STARTCHAR Q
ENCODING 81
SWIDTH 631 0
DWIDTH 12 0
BBX 12 22 0 -5
BITMAP
0000
0000
0000
0F00
11C0
20C0
2060
6060
6060
6060
6060
6060
6060
3040
3840
1F80
0E00
1F00
2390
01E0
0000
0000
ENDCHAR
STARTCHAR R
ENCODING 82
SWIDTH 631 0
DWIDTH 12 0
BBX 12 22 0 -5
BITMAP
0000
0000
0000
FF00
6180
60C0
60C0
60C0
6080
7F00
7C00
6E00
6700
6380
61C0
60E0
F070
0000
0000
0000
0000
0000
ENDCHAR
STARTCHAR S
ENCODING 83
SWIDTH 631 0
DWIDTH 12 0
BBX 12 22 0 -5
BITMAP
0000
0000
0000
1FE0
3060
6020
6020
7000
3C00
1E00
0780
01C0
00E0
4060
4060
60C0
7F80
0000
0000
0000
0000
0000
ENDCHAR
STARTCHAR T
ENCODING 84
SWIDTH 631 0
DWIDTH 12 0
BBX 12 22 0 -5
BITMAP
0000
0000
0000
7FE0
4620
0600
0600
0600
0600
0600
0600
0600
0600
0600
0600
0600
1F80
0000
0000
0000
0000
0000
ENDCHAR
STARTCHAR U
ENCODING 85
SWIDTH 631 0
DWIDTH 12 0
BBX 12 22 0 -5
BITMAP
0000
0000
0000
F070
6020
6020
6020
6020
6020
6020
6020
6020
6020
6020
7040
3FC0
1F80
0000
0000
0000
0000
0000
ENDCHAR
STARTCHAR V
ENCODING 86
SWIDTH 631 0
DWIDTH 12 0
BBX 12 22 0 -5
BITMAP
0000
0000
0000
E0E0
6040
3080
3080
3080
1900
1900
1900
0A00
0E00
0E00
0400
0400
0400
0000
0000
0000
0000
0000
ENDCHAR
STARTCHAR W
ENCODING 87
SWIDTH 631 0
DWIDTH 12 0
BBX 12 22 0 -5
BITMAP
0000
0000
0000
FEF0
6620
6620
6620
7620
7740
3340
3740
3BC0
3B80
1980
1980
1980
1980
0000
0000
0000
0000
0000
ENDCHAR
STARTCHAR X
ENCODING 88
SWIDTH 631 0
DWIDTH 12 0
BBX 12 22 0 -5
BITMAP
0000
0000
0000
F070
6020
3040
3880
1880
0D00
0600
0600
0B00
1180
11C0
20C0
4060
E0F0
0000
0000
0000
0000
0000
ENDCHAR
STARTCHAR Y
ENCODING 89
SWIDTH 631 0
DWIDTH 12 0
BBX 12 22 0 -5
BITMAP
0000
0000
0000
F070
6020
3040
1880
1880
0D00
0600
0600
0600
0600
0600
0600
0600
0F00
0000
0000
0000
0000
0000
ENDCHAR
STARTCHAR Z
ENCODING 90
SWIDTH 631 0
DWIDTH 12 0
BBX 12 22 0 -5
BITMAP
0000
0000
0000
3FE0
20C0
00C0
0180
0180
0300
0300
0600
0600
0C00
0C00
1800
1820
3FE0
0000
0000
0000
0000
0000
ENDCHAR
STARTCHAR bracketleft
ENCODING 91
SWIDTH 631 0
DWIDTH 12 0
BBX 12 22 0 -5
BITMAP
0000
0000
0F80
0F80
0C00
0C00
0C00
0C00
0C00
0C00
0C00
0C00
0C00
0C00
0C00
0F80
0F80
0000
0000
0000
0000
0000
ENDCHAR
STARTCHAR backslash
ENCODING 92
SWIDTH 631 0
DWIDTH 12 0
BBX 12 22 0 -5
BITMAP
0000
0000
6000
3000
3000
1800
1800
0C00
0C00
0600
0600
0300
0300
0180
0180
00C0
00C0
0060
0000
0000
0000
0000
ENDCHAR
STARTCHAR bracketright
ENCODING 93
SWIDTH 631 0
DWIDTH 12 0
BBX 12 22 0 -5
BITMAP
0000
0000
1F00
1F00
0300
0300
0300
0300
0300
0300
0300
0300
0300
0300
0300
1F00
1F00
0000
0000
0000
0000
0000
ENDCHAR
STARTCHAR asciicircum
ENCODING 94
SWIDTH 631 0
DWIDTH 12 0
BBX 12 22 0 -5
BITMAP
0000
0000
0400
0E00
1B00
3180
60C0
0000
0000
0000
0000
0000
0000
0000
0000
0000
0000
0000
0000
0000
0000
0000
ENDCHAR
STARTCHAR underscore
ENCODING 95
SWIDTH 631 0
DWIDTH 12 0
BBX 12 22 0 -5
BITMAP
0000
0000
0000
0000
0000
0000
0000
0000
0000
0000
0000
0000
0000
0000
0000
0000
0000
0000
FFF0
FFF0
0000
0000
ENDCHAR
STARTCHAR grave
ENCODING 96
SWIDTH 631 0
DWIDTH 12 0
BBX 12 22 0 -5
BITMAP
0000
0000
0100
0300
0600
0600
0780
0780
0300
0000
0000
0000
0000
0000
0000
0000
0000
0000
0000
0000
0000
0000
ENDCHAR
STARTCHAR a
ENCODING 97
SWIDTH 631 0
DWIDTH 12 0
BBX 12 22 0 -5
BITMAP
0000
0000
0000
0000
0000
0000
0000
0F80
18C0
10C0
03C0
1CC0
30C0
30C0
30C0
39C0
1EE0
0000
0000
0000
0000
0000
ENDCHAR
STARTCHAR b
ENCODING 98
SWIDTH 631 0
DWIDTH 12 0
BBX 12 22 0 -5
BITMAP
0000
0000
2000
6000
E000
6000
6000
6780
6FC0
70E0
6060
6060
6060
6060
7060
78C0
4F80
0000
0000
0000
0000
0000
ENDCHAR
STARTCHAR c
ENCODING 99
SWIDTH 631 0
DWIDTH 12 0
BBX 12 22 0 -5
BITMAP
0000
0000
0000
0000
0000
0000
0000
1F80
31C0
20C0
6000
6000
6000
6000
7040
30C0
1F80
0000
0000
0000
0000
0000
ENDCHAR
STARTCHAR d
ENCODING 100
SWIDTH 631 0
DWIDTH 12 0
BBX 12 22 0 -5
BITMAP
0000
0000
0060
00E0
0060
0060
0060
0F60
31E0
20E0
6060
6060
6060
6060
70E0
3960
1E70
0000
0000
0000
0000
0000
ENDCHAR
STARTCHAR e
ENCODING 101
SWIDTH 631 0
DWIDTH 12 0
BBX 12 22 0 -5
BITMAP
0000
0000
0000
0000
0000
0000
0000
0F00
30C0
6060
6060
7FE0
6000
6000
3000
1860
0F80
0000
0000
0000
0000
0000
ENDCHAR
STARTCHAR f
ENCODING 102
SWIDTH 631 0
DWIDTH 12 0
BBX 12 22 0 -5
BITMAP
0000
0000
0380
04C0
04C0
0C00
0C00
0C00
0C00
3F80
0C00
0C00
0C00
0C00
0C00
0C00
1E00
0000
0000
0000
0000
0000
ENDCHAR
STARTCHAR g
ENCODING 103
SWIDTH 631 0
DWIDTH 12 0
BBX 12 22 0 -5
BITMAP
0000
0000
0000
0000
0000
0000
0000
1F20
31E0
60C0
60C0
60C0
3180
3F00
6000
7FC0
3FE0
2060
4020
4020
7FC0
3F80
ENDCHAR
STARTCHAR h
ENCODING 104
SWIDTH 631 0
DWIDTH 12 0
BBX 12 22 0 -5
BITMAP
0000
0000
1000
3000
7000
3000
3000
3780
39C0
30C0
30C0
30C0
30C0
30C0
30C0
30C0
79E0
0000
0000
0000
0000
0000
ENDCHAR
STARTCHAR i
ENCODING 105
SWIDTH 631 0
DWIDTH 12 0
BBX 12 22 0 -5
BITMAP
0000
0000
0000
0600
0600
0000
0000
1E00
0600
0600
0600
0600
0600
0600
0600
0600
1F80
0000
0000
0000
0000
0000
ENDCHAR
STARTCHAR j
ENCODING 106
SWIDTH 631 0
DWIDTH 12 0
BBX 12 22 0 -5
BITMAP
0000
0000
0000
00C0
00C0
0000
0000
03C0
00C0
00C0
00C0
00C0
00C0
00C0
00C0
00C0
00C0
20C0
30C0
3880
1F00
0E00
ENDCHAR
STARTCHAR k
ENCODING 107
SWIDTH 631 0
DWIDTH 12 0
BBX 12 22 0 -5
BITMAP
0000
0000
6000
E000
6000
6000
6000
61C0
6300
6600
7C00
7800
7C00
6E00
6700
6380
F1E0
0000
0000
0000
0000
0000
ENDCHAR
STARTCHAR l
ENCODING 108
SWIDTH 631 0
DWIDTH 12 0
BBX 12 22 0 -5
BITMAP
0000
0000
1E00
0600
0600
0600
0600
0600
0600
0600
0600
0600
0600
0600
0600
0600
1F80
0000
0000
0000
0000
0000
ENDCHAR
STARTCHAR m
ENCODING 109
SWIDTH 631 0
DWIDTH 12 0
BBX 12 22 0 -5
BITMAP
0000
0000
0000
0000
0000
0000
0000
DDC0
6EE0
6660
6660
6660
6660
6660
6660
6660
EF70
0000
0000
0000
0000
0000
ENDCHAR
STARTCHAR n
ENCODING 110
SWIDTH 631 0
DWIDTH 12 0
BBX 12 22 0 -5
BITMAP
0000
0000
0000
0000
0000
0000
0000
2780
79C0
30C0
30C0
30C0
30C0
30C0
30C0
30C0
79E0
0000
0000
0000
0000
0000
ENDCHAR
STARTCHAR o
ENCODING 111
SWIDTH 631 0
DWIDTH 12 0
BBX 12 22 0 -5
BITMAP
0000
0000
0000
0000
0000
0000
0000
0F80
11C0
20E0
6060
6060
6060
6060
7040
3880
1F00
0000
0000
0000
0000
0000
ENDCHAR
STARTCHAR p
ENCODING 112
SWIDTH 631 0
DWIDTH 12 0
BBX 12 22 0 -5
BITMAP
0000
0000
0000
0000
0000
0000
0000
EF80
71C0
60E0
6060
6060
6060
6060
6040
7080
7F00
6000
6000
6000
6000
F000
ENDCHAR
STARTCHAR q
ENCODING 113
SWIDTH 631 0
DWIDTH 12 0
BBX 12 22 0 -5
BITMAP
0000
0000
0000
0000
0000
0000
0000
0F20
11E0
20E0
6060
6060
6060
6060
7060
38E0
1FE0
0060
0060
0060
0060
00F0
ENDCHAR
STARTCHAR r
ENCODING 114
SWIDTH 631 0
DWIDTH 12 0
BBX 12 22 0 -5
BITMAP
0000
0000
0000
0000
0000
0000
0000
7380
34C0
38C0
3000
3000
3000
3000
3000
3000
7800
0000
0000
0000
0000
0000
ENDCHAR
STARTCHAR s
ENCODING 115
SWIDTH 631 0
DWIDTH 12 0
BBX 12 22 0 -5
BITMAP
0000
0000
0000
0000
0000
0000
0000
1FC0
30C0
3040
3800
1E00
0780
01C0
20C0
30C0
3F80
0000
0000
0000
0000
0000
ENDCHAR
STARTCHAR t
ENCODING 116
SWIDTH 631 0
DWIDTH 12 0
BBX 12 22 0 -5
BITMAP
0000
0000
0000
0000
0400
0400
0C00
7FC0
0C00
0C00
0C00
0C00
0C00
0C00
0C20
0E40
0780
0000
0000
0000
0000
0000
ENDCHAR
STARTCHAR u
ENCODING 117
SWIDTH 631 0
DWIDTH 12 0
BBX 12 22 0 -5
BITMAP
0000
0000
0000
0000
0000
0000
0000
79E0
30C0
30C0
30C0
30C0
30C0
30C0
30C0
39C0
1E60
0000
0000
0000
0000
0000
ENDCHAR
STARTCHAR v
ENCODING 118
SWIDTH 631 0
DWIDTH 12 0
BBX 12 22 0 -5
BITMAP
0000
0000
0000
0000
0000
0000
0000
F070
6020
3040
3040
1880
1880
0D00
0D00
0600
0600
0000
0000
0000
0000
0000
ENDCHAR
STARTCHAR w
ENCODING 119
SWIDTH 631 0
DWIDTH 12 0
BBX 12 22 0 -5
BITMAP
0000
0000
0000
0000
0000
0000
0000
FF70
6620
6620
6620
3740
3B40
3B40
1980
1980
1980
0000
0000
0000
0000
0000
ENDCHAR
STARTCHAR x
ENCODING 120
SWIDTH 631 0
DWIDTH 12 0
BBX 12 22 0 -5
BITMAP
0000
0000
0000
0000
0000
0000
0000
F8F0
7040
3880
1D00
0E00
0700
0B80
11C0
20E0
F1F0
0000
0000
0000
0000
0000
ENDCHAR
STARTCHAR y
ENCODING 121
SWIDTH 631 0
DWIDTH 12 0
BBX 12 22 0 -5
BITMAP
0000
0000
0000
0000
0000
0000
0000
F0F0
6020
3040
3040
1880
1880
0D00
0D00
0600
0600
0400
0C00
0800
7800
7000
ENDCHAR
STARTCHAR z
ENCODING 122
SWIDTH 631 0
DWIDTH 12 0
BBX 12 22 0 -5
BITMAP
0000
0000
0000
0000
0000
0000
0000
7FE0
60E0
41C0
0380
0700
0E00
1C00
3820
7060
7FE0
0000
0000
0000
0000
0000
ENDCHAR
STARTCHAR braceleft
ENCODING 123
SWIDTH 631 0
DWIDTH 12 0
BBX 12 22 0 -5
BITMAP
0000
0000
0380
0600
0600
0600
0600
0600
0C00
3800
0C00
0600
0600
0600
0600
0600
0380
0000
0000
0000
0000
0000
ENDCHAR
STARTCHAR bar
ENCODING 124
SWIDTH 631 0
DWIDTH 12 0
BBX 12 22 0 -5
BITMAP
0000
0000
0600
0600
0600
0600
0600
0600
0600
0600
0600
0600
0600
0600
0600
0600
0600
0600
0600
0600
0600
0600
ENDCHAR
STARTCHAR braceright
ENCODING 125
SWIDTH 631 0
DWIDTH 12 0
BBX 12 22 0 -5
BITMAP
0000
0000
1C00
0600
0600
0600
0600
0600
0300
01C0
0300
0600
0600
0600
0600
0600
1C00
0000
0000
0000
0000
0000
ENDCHAR
STARTCHAR asciitilde
ENCODING 126
SWIDTH 631 0
DWIDTH 12 0
BBX 12 22 0 -5
BITMAP
0000
0000
0000
0000
1C20
3E60
67C0
4380
0000
0000
0000
0000
0000
0000
0000
0000
0000
0000
0000
0000
0000
0000
ENDCHAR
STARTCHAR nbspace
ENCODING 160
SWIDTH 631 0
DWIDTH 12 0
BBX 12 22 0 -5
BITMAP
0000
0000
0000
0000
0000
0000
0000
0000
0000
0000
0000
0000
0000
0000
0000
0000
0000
0000
0000
0000
0000
0000
ENDCHAR
STARTCHAR exclamdown
ENCODING 161
SWIDTH 631 0
DWIDTH 12 0
BBX 12 22 0 -5
BITMAP
0000
0000
0600
0600
0000
0000
0600
0600
0600
0600
0600
0600
0600
0600
0600
0600
0600
0000
0000
0000
0000
0000
ENDCHAR
STARTCHAR cent
ENCODING 162
SWIDTH 631 0
DWIDTH 12 0
BBX 12 22 0 -5
BITMAP
0000
0000
0000
0000
0000
0600
0600
1F80
36C0
26C0
6600
6600
6600
6600
7640
36C0
1F80
0600
0600
0000
0000
0000
ENDCHAR
STARTCHAR sterling
ENCODING 163
SWIDTH 631 0
DWIDTH 12 0
BBX 12 22 0 -5
BITMAP
0000
0000
0000
0F80
1CC0
18C0
1800
1800
1800
7E00
7E00
1800
1800
1800
1800
3E20
7FE0
61C0
0000
0000
0000
0000
ENDCHAR
STARTCHAR currency
ENCODING 164
SWIDTH 631 0
DWIDTH 12 0
BBX 12 22 0 -5
BITMAP
0000
0000
0000
0000
0000
0000
0000
6060
2F40
1F80
30C0
30C0
30C0
30C0
1F80
2F40
6060
0000
0000
0000
0000
0000
ENDCHAR
STARTCHAR yen
ENCODING 165
SWIDTH 631 0
DWIDTH 12 0
BBX 12 22 0 -5
BITMAP
0000
0000
0000
6060
6060
30C0
1980
1980
0F00
0600
0600
1F80
1F80
0600
0600
0600
0600
0000
0000
0000
0000
0000
ENDCHAR
STARTCHAR brokenbar
ENCODING 166
SWIDTH 631 0
DWIDTH 12 0
BBX 12 22 0 -5
BITMAP
0000
0000
0600
0600
0600
0600
0600
0600
0600
0600
0600
0000
0000
0600
0600
0600
0600
0600
0600
0600
0600
0600
ENDCHAR
STARTCHAR section
ENCODING 167
SWIDTH 631 0
DWIDTH 12 0
BBX 12 22 0 -5
BITMAP
0000
0000
0000
1F00
3180
3180
3000
3000
1F00
3180
3180
1F00
0180
0180
3180
3180
1F00
0000
0000
0000
0000
0000
ENDCHAR
STARTCHAR dieresis
ENCODING 168
SWIDTH 631 0
DWIDTH 12 0
BBX 12 22 0 -5
BITMAP
0000
0000
0000
0000
1980
1980
0000
0000
0000
0000
0000
0000
0000
0000
0000
0000
0000
0000
0000
0000
0000
0000
ENDCHAR
STARTCHAR copyright
ENCODING 169
SWIDTH 631 0
DWIDTH 12 0
BBX 12 22 0 -5
BITMAP
0000
0000
0000
0000
0000
0000
0000
1F80
2040
4F20
59A0
5820
5820
59A0
4F20
2040
1F80
0000
0000
0000
0000
0000
ENDCHAR
STARTCHAR ordfeminine
ENCODING 170
SWIDTH 631 0
DWIDTH 12 0
BBX 12 22 0 -5
BITMAP
0000
0000
0000
1F00
3180
0180
0780
1980
3180
3180
3380
1DC0
0000
3FC0
0000
0000
0000
0000
0000
0000
0000
0000
ENDCHAR
STARTCHAR guillemotleft
ENCODING 171
SWIDTH 631 0
DWIDTH 12 0
BBX 12 22 0 -5
BITMAP
0000
0000
0000
0000
0000
0000
0000
0000
0660
0CC0
1980
3300
6600
3300
1980
0CC0
0660
0000
0000
0000
0000
0000
ENDCHAR
STARTCHAR logicalnot
ENCODING 172
SWIDTH 631 0
DWIDTH 12 0
BBX 12 22 0 -5
BITMAP
0000
0000
0000
0000
0000
3FC0
3FC0
00C0
00C0
00C0
0000
0000
0000
0000
0000
0000
0000
0000
0000
0000
0000
0000
ENDCHAR
STARTCHAR softhyphen
ENCODING 173
SWIDTH 631 0
DWIDTH 12 0
BBX 12 22 0 -5
BITMAP
0000
0000
0000
0000
0000
0000
0000
0000
0000
0000
0000
7FE0
7FE0
0000
0000
0000
0000
0000
0000
0000
0000
0000
ENDCHAR
STARTCHAR registered
ENCODING 174
SWIDTH 631 0
DWIDTH 12 0
BBX 12 22 0 -5
BITMAP
0000
0000
0000
0000
0000
0000
0000
1F80
2040
5F20
59A0
59A0
5F20
59A0
59A0
2040
1F80
0000
0000
0000
0000
0000
ENDCHAR
STARTCHAR macron
ENCODING 175
SWIDTH 631 0
DWIDTH 12 0
BBX 12 22 0 -5
BITMAP
0000
0000
0000
0000
1F80
1F80
0000
0000
0000
0000
0000
0000
0000
0000
0000
0000
0000
0000
0000
0000
0000
0000
ENDCHAR
STARTCHAR degree
ENCODING 176
SWIDTH 631 0
DWIDTH 12 0
BBX 12 22 0 -5
BITMAP
0000
0000
0F00
1980
1980
1980
0F00
0000
0000
0000
0000
0000
0000
0000
0000
0000
0000
0000
0000
0000
0000
0000
ENDCHAR
STARTCHAR plusminus
ENCODING 177
SWIDTH 631 0
DWIDTH 12 0
BBX 12 22 0 -5
BITMAP
0000
0000
0000
0000
0000
0600
0600
0600
0600
7FE0
7FE0
0600
0600
0600
0600
0000
7FE0
7FE0
0000
0000
0000
0000
ENDCHAR
STARTCHAR twosuperior
ENCODING 178
SWIDTH 631 0
DWIDTH 12 0
BBX 12 22 0 -5
BITMAP
0000
0000
0F00
1F80
3180
2180
0300
0600
0C00
1840
3FC0
3FC0
0000
0000
0000
0000
0000
0000
0000
0000
0000
0000
ENDCHAR
STARTCHAR threesuperior
ENCODING 179
SWIDTH 631 0
DWIDTH 12 0
BBX 12 22 0 -5
BITMAP
0000
0000
0F00
1B80
2180
0180
0F00
0380
0180
3180
3F80
1F00
0000
0000
0000
0000
0000
0000
0000
0000
0000
0000
ENDCHAR
STARTCHAR acute
ENCODING 180
SWIDTH 631 0
DWIDTH 12 0
BBX 12 22 0 -5
BITMAP
0000
0000
0000
0300
0600
0C00
0000
0000
0000
0000
0000
0000
0000
0000
0000
0000
0000
0000
0000
0000
0000
0000
ENDCHAR
STARTCHAR mu
ENCODING 181
SWIDTH 631 0
DWIDTH 12 0
BBX 12 22 0 -5
BITMAP
0000
0000
0000
0000
0000
0000
0000
30C0
30C0
30C0
30C0
30C0
30C0
30C0
30C0
39C0
36E0
3000
3000
6000
0000
0000
ENDCHAR
STARTCHAR paragraph
ENCODING 182
SWIDTH 631 0
DWIDTH 12 0
BBX 12 22 0 -5
BITMAP
0000
0000
0000
1FF0
3CC0
7CC0
7CC0
7CC0
3CC0
1CC0
0CC0
0CC0
0CC0
0CC0
0CC0
0CC0
1CE0
0000
0000
0000
0000
0000
ENDCHAR
STARTCHAR periodcentered
ENCODING 183
SWIDTH 631 0
DWIDTH 12 0
BBX 12 22 0 -5
BITMAP
0000
0000
0000
0000
0000
0000
0000
0000
0000
0000
0600
0F00
0F00
0600
0000
0000
0000
0000
0000
0000
0000
0000
ENDCHAR
STARTCHAR cedilla
ENCODING 184
SWIDTH 631 0
DWIDTH 12 0
BBX 12 22 0 -5
BITMAP
0000
0000
0000
0000
0000
0000
0000
0000
0000
0000
0000
0000
0000
0000
0000
0000
0000
0600
0300
0180
0F00
0000
ENDCHAR
STARTCHAR onesuperior
ENCODING 185
SWIDTH 631 0
DWIDTH 12 0
BBX 12 22 0 -5
BITMAP
0000
0000
0200
0600
0E00
1600
0600
0600
0600
0600
0600
1F80
0000
0000
0000
0000
0000
0000
0000
0000
0000
0000
ENDCHAR
STARTCHAR ordmasculine
ENCODING 186
SWIDTH 631 0
DWIDTH 12 0
BBX 12 22 0 -5
BITMAP
0000
0000
0000
0700
1980
10C0
30C0
30C0
30C0
3080
1980
0E00
0000
3FC0
0000
0000
0000
0000
0000
0000
0000
0000
ENDCHAR
STARTCHAR guillemotright
ENCODING 187
SWIDTH 631 0
DWIDTH 12 0
BBX 12 22 0 -5
BITMAP
0000
0000
0000
0000
0000
0000
0000
0000
6600
3300
1980
0CC0
0660
0CC0
1980
3300
6600
0000
0000
0000
0000
0000
ENDCHAR
STARTCHAR onequarter
ENCODING 188
SWIDTH 631 0
DWIDTH 12 0
BBX 12 22 0 -5
BITMAP
0000
0000
0000
1000
3000
1000
1040
1080
1100
3A40
04C0
0940
1240
2440
47E0
0040
0040
0000
0000
0000
0000
0000
ENDCHAR
STARTCHAR onehalf
ENCODING 189
SWIDTH 631 0
DWIDTH 12 0
BBX 12 22 0 -5
BITMAP
0000
0000
0000
1000
3000
1000
1040
1080
1100
3A00
05C0
0A20
1020
20C0
4100
0200
03E0
0000
0000
0000
0000
0000
ENDCHAR
STARTCHAR threequarters
ENCODING 190
SWIDTH 631 0
DWIDTH 12 0
BBX 12 22 0 -5
BITMAP
0000
0000
0000
3800
4400
0400
1840
0480
4500
3A40
04C0
0940
1240
2440
47E0
0040
0040
0000
0000
0000
0000
0000
ENDCHAR
STARTCHAR questiondown
ENCODING 191
SWIDTH 631 0
DWIDTH 12 0
BBX 12 22 0 -5
BITMAP
0000
0000
0300
0300
0000
0000
0300
0300
0600
0C00
1800
3000
3000
3040
39C0
1F80
0F00
0000
0000
0000
0000
0000
ENDCHAR
STARTCHAR Agrave
ENCODING 192
SWIDTH 631 0
DWIDTH 12 0
BBX 12 22 0 -5
BITMAP
0000
0000
0C00
0600
0300
0000
0600
0600
0B00
0B00
1980
1180
3FC0
20C0
6060
4060
E0F0
0000
0000
0000
0000
0000
ENDCHAR
STARTCHAR Aacute
ENCODING 193
SWIDTH 631 0
DWIDTH 12 0
BBX 12 22 0 -5
BITMAP
0000
0000
0300
0600
0C00
0000
0600
0600
0B00
0B00
1980
1180
3FC0
20C0
6060
4060
E0F0
0000
0000
0000
0000
0000
ENDCHAR
STARTCHAR Acircumflex
ENCODING 194
SWIDTH 631 0
DWIDTH 12 0
BBX 12 22 0 -5
BITMAP
0000
0000
0600
0F00
1980
0000
0600
0600
0B00
0B00
1980
1180
3FC0
20C0
6060
4060
E0F0
0000
0000
0000
0000
0000
ENDCHAR
STARTCHAR Atilde
ENCODING 195
SWIDTH 631 0
DWIDTH 12 0
BBX 12 22 0 -5
BITMAP
0000
0000
1C40
3FC0
2380
0000
0600
0600
0B00
0B00
1980
1180
3FC0
20C0
6060
4060
E0F0
0000
0000
0000
0000
0000
ENDCHAR
STARTCHAR Adieresis
ENCODING 196
SWIDTH 631 0
DWIDTH 12 0
BBX 12 22 0 -5
BITMAP
0000
0000
1980
1980
0000
0400
0600
0600
0B00
0B00
1980
1180
3FC0
20C0
6060
4060
E0F0
0000
0000
0000
0000
0000
ENDCHAR
STARTCHAR Aring
ENCODING 197
SWIDTH 631 0
DWIDTH 12 0
BBX 12 22 0 -5
BITMAP
0000
0000
0F00
1980
0F00
0400
0600
0600
0B00
0B00
1980
1180
3FC0
20C0
6060
4060
E0F0
0000
0000
0000
0000
0000
ENDCHAR
STARTCHAR AE
ENCODING 198
SWIDTH 631 0
DWIDTH 12 0
BBX 12 22 0 -5
BITMAP
0000
0000
0000
03F0
0710
0710
0B00
0B00
0B20
13E0
1320
3F00
2300
2300
4310
4310
E7F0
0000
0000
0000
0000
0000
ENDCHAR
STARTCHAR Ccedilla
ENCODING 199
SWIDTH 631 0
DWIDTH 12 0
BBX 12 22 0 -5
BITMAP
0000
0000
0000
0FC0
1060
2020
2000
6000
6000
6000
6000
6000
6000
2000
3020
1840
0F80
0600
0300
0180
0F00
0000
ENDCHAR
STARTCHAR Egrave
ENCODING 200
SWIDTH 631 0
DWIDTH 12 0
BBX 12 22 0 -5
BITMAP
0000
0000
0C00
0600
0100
7FE0
3020
3000
3000
3080
3F80
3080
3000
3000
3020
3020
7FE0
0000
0000
0000
0000
0000
ENDCHAR
STARTCHAR Eacute
ENCODING 201
SWIDTH 631 0
DWIDTH 12 0
BBX 12 22 0 -5
BITMAP
0000
0000
0300
0600
0800
7FE0
3020
3000
3000
3080
3F80
3080
3000
3000
3020
3020
7FE0
0000
0000
0000
0000
0000
ENDCHAR
STARTCHAR Ecircumflex
ENCODING 202
SWIDTH 631 0
DWIDTH 12 0
BBX 12 22 0 -5
BITMAP
0000
0000
0700
0D80
0000
7FE0
3020
3000
3000
3080
3F80
3080
3000
3000
3020
3020
7FE0
0000
0000
0000
0000
0000
ENDCHAR
STARTCHAR Edieresis
ENCODING 203
SWIDTH 631 0
DWIDTH 12 0
BBX 12 22 0 -5
BITMAP
0000
0000
1980
1980
0000
7FE0
3020
3000
3000
3080
3F80
3080
3000
3000
3020
3020
7FE0
0000
0000
0000
0000
0000
ENDCHAR
STARTCHAR Igrave
ENCODING 204
SWIDTH 631 0
DWIDTH 12 0
BBX 12 22 0 -5
BITMAP
0000
0000
1800
0C00
0200
1F80
0600
0600
0600
0600
0600
0600
0600
0600
0600
0600
1F80
0000
0000
0000
0000
0000
ENDCHAR
STARTCHAR Iacute
ENCODING 205
SWIDTH 631 0
DWIDTH 12 0
BBX 12 22 0 -5
BITMAP
0000
0000
0180
0300
0400
1F80
0600
0600
0600
0600
0600
0600
0600
0600
0600
0600
1F80
0000
0000
0000
0000
0000
ENDCHAR
STARTCHAR Icircumflex
ENCODING 206
SWIDTH 631 0
DWIDTH 12 0
BBX 12 22 0 -5
BITMAP
0000
0000
0600
0F00
1980
0000
1F80
0600
0600
0600
0600
0600
0600
0600
0600
0600
1F80
0000
0000
0000
0000
0000
ENDCHAR
STARTCHAR Idieresis
ENCODING 207
SWIDTH 631 0
DWIDTH 12 0
BBX 12 22 0 -5
BITMAP
0000
0000
1980
1980
0000
1F80
0600
0600
0600
0600
0600
0600
0600
0600
0600
0600
1F80
0000
0000
0000
0000
0000
ENDCHAR
STARTCHAR Eth
ENCODING 208
SWIDTH 631 0
DWIDTH 12 0
BBX 12 22 0 -5
BITMAP
0000
0000
0000
7F00
31C0
30C0
3060
3060
3060
FC60
FC60
3060
3060
3060
3040
3180
7E00
0000
0000
0000
0000
0000
ENDCHAR
STARTCHAR Ntilde
ENCODING 209
SWIDTH 631 0
DWIDTH 12 0
BBX 12 22 0 -5
BITMAP
0000
0000
1C40
3FC0
2380
C070
6020
7020
7820
5C20
4E20
4720
43A0
41E0
40E0
4060
E030
0000
0000
0000
0000
0000
ENDCHAR
STARTCHAR Ograve
ENCODING 210
SWIDTH 631 0
DWIDTH 12 0
BBX 12 22 0 -5
BITMAP
0000
0000
0C00
0600
0100
0F80
11C0
20C0
2060
6060
6060
6060
6060
2040
3040
1880
0F00
0000
0000
0000
0000
0000
ENDCHAR
STARTCHAR Oacute
ENCODING 211
SWIDTH 631 0
DWIDTH 12 0
BBX 12 22 0 -5
BITMAP
0000
0000
0180
0300
0400
0F80
11C0
20C0
2060
6060
6060
6060
6060
2040
3040
1880
0F00
0000
0000
0000
0000
0000
ENDCHAR
STARTCHAR Ocircumflex
ENCODING 212
SWIDTH 631 0
DWIDTH 12 0
BBX 12 22 0 -5
BITMAP
0000
0000
0600
0900
1080
0F00
11C0
20C0
2060
6060
6060
6060
6060
2040
3040
1880
0F00
0000
0000
0000
0000
0000
ENDCHAR
STARTCHAR Otilde
ENCODING 213
SWIDTH 631 0
DWIDTH 12 0
BBX 12 22 0 -5
BITMAP
0000
0000
1C60
3FC0
2280
0F80
11C0
20C0
2060
6060
6060
6060
6060
2040
3040
1880
0F00
0000
0000
0000
0000
0000
ENDCHAR
STARTCHAR Odieresis
ENCODING 214
SWIDTH 631 0
DWIDTH 12 0
BBX 12 22 0 -5
BITMAP
0000
0000
1980
1980
0000
0F80
11C0
20C0
2060
6060
6060
6060
6060
2040
3040
1880
0F00
0000
0000
0000
0000
0000
ENDCHAR
STARTCHAR multiply
ENCODING 215
SWIDTH 631 0
DWIDTH 12 0
BBX 12 22 0 -5
BITMAP
0000
0000
0000
0000
0000
0000
0000
0000
6060
30C0
1980
0F00
0600
0F00
1980
30C0
6060
0000
0000
0000
0000
0000
ENDCHAR
STARTCHAR Oslash
ENCODING 216
SWIDTH 631 0
DWIDTH 12 0
BBX 12 22 0 -5
BITMAP
0000
0000
0000
0080
0F80
11C0
21C0
2260
6260
6260
6460
6460
6460
2840
3840
1880
1F00
1000
0000
0000
0000
0000
ENDCHAR
STARTCHAR Ugrave
ENCODING 217
SWIDTH 631 0
DWIDTH 12 0
BBX 12 22 0 -5
BITMAP
0000
0000
0C00
0600
E330
6020
6020
6020
6020
6020
6020
6020
6020
6020
7040
3FC0
1F80
0000
0000
0000
0000
0000
ENDCHAR
STARTCHAR Uacute
ENCODING 218
SWIDTH 631 0
DWIDTH 12 0
BBX 12 22 0 -5
BITMAP
0000
0000
0180
0300
E630
6020
6020
6020
6020
6020
6020
6020
6020
6020
7040
3FC0
1F80
0000
0000
0000
0000
0000
ENDCHAR
STARTCHAR Ucircumflex
ENCODING 219
SWIDTH 631 0
DWIDTH 12 0
BBX 12 22 0 -5
BITMAP
0000
0000
0700
0D80
E8B0
6020
6020
6020
6020
6020
6020
6020
6020
6020
7040
3FC0
1F80
0000
0000
0000
0000
0000
ENDCHAR
STARTCHAR Udieresis
ENCODING 220
SWIDTH 631 0
DWIDTH 12 0
BBX 12 22 0 -5
BITMAP
0000
0000
1980
1980
E030
6020
6020
6020
6020
6020
6020
6020
6020
6020
7040
3FC0
1F80
0000
0000
0000
0000
0000
ENDCHAR
STARTCHAR Yacute
ENCODING 221
SWIDTH 631 0
DWIDTH 12 0
BBX 12 22 0 -5
BITMAP
0000
0000
0180
0300
E670
6020
3040
1880
0D00
0600
0600
0600
0600
0600
0600
0600
0F00
0000
0000
0000
0000
0000
ENDCHAR
STARTCHAR Thorn
ENCODING 222
SWIDTH 631 0
DWIDTH 12 0
BBX 12 22 0 -5
BITMAP
0000
0000
7800
3000
3F80
30C0
3060
3060
3060
30C0
3F80
3000
3000
3000
3000
3000
7800
0000
0000
0000
0000
0000
ENDCHAR
STARTCHAR germandbls
ENCODING 223
SWIDTH 631 0
DWIDTH 12 0
BBX 12 22 0 -5
BITMAP
0000
0000
0000
0F00
1980
30C0
30C0
30C0
3180
3780
3180
30C0
30C0
30C0
30C0
3180
7700
0000
0000
0000
0000
0000
ENDCHAR
STARTCHAR agrave
ENCODING 224
SWIDTH 631 0
DWIDTH 12 0
BBX 12 22 0 -5
BITMAP
0000
0000
0000
0C00
0600
0300
0000
0F80
18C0
10C0
03C0
1CC0
30C0
30C0
30C0
39C0
1EE0
0000
0000
0000
0000
0000
ENDCHAR
STARTCHAR aacute
ENCODING 225
SWIDTH 631 0
DWIDTH 12 0
BBX 12 22 0 -5
BITMAP
0000
0000
0000
0180
0300
0600
0000
0F80
18C0
10C0
03C0
1CC0
30C0
30C0
30C0
39C0
1EE0
0000
0000
0000
0000
0000
ENDCHAR
STARTCHAR acircumflex
ENCODING 226
SWIDTH 631 0
DWIDTH 12 0
BBX 12 22 0 -5
BITMAP
0000
0000
0200
0700
0D80
18C0
0000
0F80
18C0
10C0
03C0
1CC0
30C0
30C0
30C0
39C0
1EE0
0000
0000
0000
0000
0000
ENDCHAR
STARTCHAR atilde
ENCODING 227
SWIDTH 631 0
DWIDTH 12 0
BBX 12 22 0 -5
BITMAP
0000
0000
0E40
1FC0
1380
0000
0000
0F80
18C0
10C0
03C0
1CC0
30C0
30C0
30C0
39C0
1EE0
0000
0000
0000
0000
0000
ENDCHAR
STARTCHAR adieresis
ENCODING 228
SWIDTH 631 0
DWIDTH 12 0
BBX 12 22 0 -5
BITMAP
0000
0000
0000
1980
1980
0000
0000
0F80
18C0
10C0
03C0
1CC0
30C0
30C0
30C0
39C0
1EE0
0000
0000
0000
0000
0000
ENDCHAR
STARTCHAR aring
ENCODING 229
SWIDTH 631 0
DWIDTH 12 0
BBX 12 22 0 -5
BITMAP
0000
0000
0700
0D80
0D80
0700
0000
0F80
18C0
10C0
03C0
1CC0
30C0
30C0
30C0
39C0
1EE0
0000
0000
0000
0000
0000
ENDCHAR
STARTCHAR ae
ENCODING 230
SWIDTH 631 0
DWIDTH 12 0
BBX 12 22 0 -5
BITMAP
0000
0000
0000
0000
0000
0000
0000
3DE0
6630
4630
0630
3FF0
6600
C600
C600
E730
7DE0
0000
0000
0000
0000
0000
ENDCHAR
STARTCHAR ccedilla
ENCODING 231
SWIDTH 631 0
DWIDTH 12 0
BBX 12 22 0 -5
BITMAP
0000
0000
0000
0000
0000
0000
0000
1F80
31C0
20C0
6000
6000
6000
6000
7040
30C0
1F80
0600
0300
0180
0F00
0000
ENDCHAR
STARTCHAR egrave
ENCODING 232
SWIDTH 631 0
DWIDTH 12 0
BBX 12 22 0 -5
BITMAP
0000
0000
0000
0C00
0600
0300
0000
0F00
30C0
6060
6060
7FE0
6000
6000
3000
1860
0F80
0000
0000
0000
0000
0000
ENDCHAR
STARTCHAR eacute
ENCODING 233
SWIDTH 631 0
DWIDTH 12 0
BBX 12 22 0 -5
BITMAP
0000
0000
0000
0180
0300
0600
0000
0F00
30C0
6060
6060
7FE0
6000
6000
3000
1860
0F80
0000
0000
0000
0000
0000
ENDCHAR
STARTCHAR ecircumflex
ENCODING 234
SWIDTH 631 0
DWIDTH 12 0
BBX 12 22 0 -5
BITMAP
0000
0000
0200
0700
0D80
18C0
0000
0F00
30C0
6060
6060
7FE0
6000
6000
3000
1860
0F80
0000
0000
0000
0000
0000
ENDCHAR
STARTCHAR edieresis
ENCODING 235
SWIDTH 631 0
DWIDTH 12 0
BBX 12 22 0 -5
BITMAP
0000
0000
0000
1980
1980
0000
0000
0F00
30C0
6060
6060
7FE0
6000
6000
3000
1860
0F80
0000
0000
0000
0000
0000
ENDCHAR
STARTCHAR igrave
ENCODING 236
SWIDTH 631 0
DWIDTH 12 0
BBX 12 22 0 -5
BITMAP
0000
0000
0000
1800
0C00
0600
0000
1E00
0600
0600
0600
0600
0600
0600
0600
0600
1F80
0000
0000
0000
0000
0000
ENDCHAR
STARTCHAR iacute
ENCODING 237
SWIDTH 631 0
DWIDTH 12 0
BBX 12 22 0 -5
BITMAP
0000
0000
0000
0180
0300
0600
0000
1E00
0600
0600
0600
0600
0600
0600
0600
0600
1F80
0000
0000
0000
0000
0000
ENDCHAR
STARTCHAR icircumflex
ENCODING 238
SWIDTH 631 0
DWIDTH 12 0
BBX 12 22 0 -5
BITMAP
0000
0000
0400
0E00
1B00
3180
0000
1E00
0600
0600
0600
0600
0600
0600
0600
0600
1F80
0000
0000
0000
0000
0000
ENDCHAR
STARTCHAR idieresis
ENCODING 239
SWIDTH 631 0
DWIDTH 12 0
BBX 12 22 0 -5
BITMAP
0000
0000
0000
1980
1980
0000
0000
1E00
0600
0600
0600
0600
0600
0600
0600
0600
1F80
0000
0000
0000
0000
0000
ENDCHAR
STARTCHAR eth
ENCODING 240
SWIDTH 631 0
DWIDTH 12 0
BBX 12 22 0 -5
BITMAP
0000
0000
1C00
06C0
0300
0D80
00C0
00C0
0060
0F60
18E0
3060
3060
3060
3060
18C0
0F00
0000
0000
0000
0000
0000
ENDCHAR
STARTCHAR ntilde
ENCODING 241
SWIDTH 631 0
DWIDTH 12 0
BBX 12 22 0 -5
BITMAP
0000
0000
1C40
3FC0
2380
0000
0000
2780
79C0
30C0
30C0
30C0
30C0
30C0
30C0
30C0
79E0
0000
0000
0000
0000
0000
ENDCHAR
STARTCHAR ograve
ENCODING 242
SWIDTH 631 0
DWIDTH 12 0
BBX 12 22 0 -5
BITMAP
0000
0000
0000
0C00
0600
0300
0000
0F80
11C0
20E0
6060
6060
6060
6060
7040
3880
1F00
0000
0000
0000
0000
0000
ENDCHAR
STARTCHAR oacute
ENCODING 243
SWIDTH 631 0
DWIDTH 12 0
BBX 12 22 0 -5
BITMAP
0000
0000
0000
0180
0300
0600
0000
0F80
11C0
20E0
6060
6060
6060
6060
7040
3880
1F00
0000
0000
0000
0000
0000
ENDCHAR
STARTCHAR ocircumflex
ENCODING 244
SWIDTH 631 0
DWIDTH 12 0
BBX 12 22 0 -5
BITMAP
0000
0000
0200
0700
0D80
18C0
0000
0F80
11C0
20E0
6060
6060
6060
6060
7040
3880
1F00
0000
0000
0000
0000
0000
ENDCHAR
STARTCHAR otilde
ENCODING 245
SWIDTH 631 0
DWIDTH 12 0
BBX 12 22 0 -5
BITMAP
0000
0000
1C40
3FC0
2380
0000
0000
0F80
11C0
20E0
6060
6060
6060
6060
7040
3880
1F00
0000
0000
0000
0000
0000
ENDCHAR
STARTCHAR odieresis
ENCODING 246
SWIDTH 631 0
DWIDTH 12 0
BBX 12 22 0 -5
BITMAP
0000
0000
0000
1980
1980
0000
0000
0F80
11C0
20E0
6060
6060
6060
6060
7040
3880
1F00
0000
0000
0000
0000
0000
ENDCHAR
STARTCHAR divide
ENCODING 247
SWIDTH 631 0
DWIDTH 12 0
BBX 12 22 0 -5
BITMAP
0000
0000
0000
0000
0000
0000
0000
0600
0600
0000
0000
7FE0
7FE0
0000
0000
0600
0600
0000
0000
0000
0000
0000
ENDCHAR
STARTCHAR oslash
ENCODING 248
SWIDTH 631 0
DWIDTH 12 0
BBX 12 22 0 -5
BITMAP
0000
0000
0000
0000
0000
0000
0010
0FA0
11C0
20E0
6160
6260
6460
6860
7040
3880
5F00
8000
0000
0000
0000
0000
ENDCHAR
STARTCHAR ugrave
ENCODING 249
SWIDTH 631 0
DWIDTH 12 0
BBX 12 22 0 -5
BITMAP
0000
0000
0000
1800
0C00
0600
0000
79E0
30C0
30C0
30C0
30C0
30C0
30C0
30C0
39C0
1E60
0000
0000
0000
0000
0000
ENDCHAR
STARTCHAR uacute
ENCODING 250
SWIDTH 631 0
DWIDTH 12 0
BBX 12 22 0 -5
BITMAP
0000
0000
0000
0180
0300
0600
0000
79E0
30C0
30C0
30C0
30C0
30C0
30C0
30C0
39C0
1E60
0000
0000
0000
0000
0000
ENDCHAR
STARTCHAR ucircumflex
ENCODING 251
SWIDTH 631 0
DWIDTH 12 0
BBX 12 22 0 -5
BITMAP
0000
0000
0200
0700
0D80
18C0
0000
79E0
30C0
30C0
30C0
30C0
30C0
30C0
30C0
39C0
1E60
0000
0000
0000
0000
0000
ENDCHAR
STARTCHAR udieresis
ENCODING 252
SWIDTH 631 0
DWIDTH 12 0
BBX 12 22 0 -5
BITMAP
0000
0000
0000
1980
1980
0000
0000
79E0
30C0
30C0
30C0
30C0
30C0
30C0
30C0
39C0
1E60
0000
0000
0000
0000
0000
ENDCHAR
STARTCHAR yacute
ENCODING 253
SWIDTH 631 0
DWIDTH 12 0
BBX 12 22 0 -5
BITMAP
0000
0000
0000
0180
0300
0600
0000
F0F0
6020
3040
3040
1880
1880
0D00
0D00
0600
0600
0400
0C00
0800
7800
7000
ENDCHAR
STARTCHAR thorn
ENCODING 254
SWIDTH 631 0
DWIDTH 12 0
BBX 12 22 0 -5
BITMAP
0000
0000
0000
0000
0000
0000
0000
7800
3000
3000
3F80
30C0
3060
3060
30C0
3F80
3000
3000
3000
3000
3000
7800
ENDCHAR
STARTCHAR ydieresis
ENCODING 255
SWIDTH 631 0
DWIDTH 12 0
BBX 12 22 0 -5
BITMAP
0000
0000
0000
1980
1980
0000
0000
F0F0
6020
3040
3040
1880
1880
0D00
0D00
0600
0600
0400
0C00
0800
7800
7000
ENDCHAR
STARTCHAR Amacron
ENCODING 256
SWIDTH 631 0
DWIDTH 12 0
BBX 12 22 0 -5
BITMAP
1F80
1F80
0000
0600
0600
0B00
0B00
0900
1180
1180
1080
3FC0
20C0
2040
4060
4060
E0F0
0000
0000
0000
0000
0000
ENDCHAR
STARTCHAR amacron
ENCODING 257
SWIDTH 631 0
DWIDTH 12 0
BBX 12 22 0 -5
BITMAP
0000
0000
0000
0FC0
0FC0
0000
0000
0F80
18C0
10C0
03C0
1CC0
30C0
30C0
30C0
39C0
1EE0
0000
0000
0000
0000
0000
ENDCHAR
STARTCHAR Abreve
ENCODING 258
SWIDTH 631 0
DWIDTH 12 0
BBX 12 22 0 -5
BITMAP
1B00
1B00
0E00
0600
0600
0B00
0B00
0900
1180
1180
1080
3FC0
20C0
2040
4060
4060
E0F0
0000
0000
0000
0000
0000
ENDCHAR
STARTCHAR abreve
ENCODING 259
SWIDTH 631 0
DWIDTH 12 0
BBX 12 22 0 -5
BITMAP
0000
0000
0D80
0D80
0700
0000
0000
0F80
18C0
10C0
03C0
1CC0
30C0
30C0
30C0
39C0
1EE0
0000
0000
0000
0000
0000
ENDCHAR
STARTCHAR Aogonek
ENCODING 260
SWIDTH 631 0
DWIDTH 12 0
BBX 12 22 0 -5
BITMAP
0000
0000
0000
0600
0600
0B00
0B00
0900
1180
1180
1080
3FC0
20C0
2040
4060
4060
E0F0
00C0
0180
0300
01E0
0000
ENDCHAR
STARTCHAR aogonek
ENCODING 261
SWIDTH 631 0
DWIDTH 12 0
BBX 12 22 0 -5
BITMAP
0000
0000
0000
0000
0000
0000
0000
0F80
18C0
10C0
03C0
1CC0
30C0
30C0
30C0
39C0
1EE0
00C0
0180
0300
01E0
0000
ENDCHAR
STARTCHAR Cacute
ENCODING 262
SWIDTH 631 0
DWIDTH 12 0
BBX 12 22 0 -5
BITMAP
0300
0600
0C00
0FC0
1060
2020
2000
6000
6000
6000
6000
6000
6000
2000
3020
1840
0F80
0000
0000
0000
0000
0000
ENDCHAR
STARTCHAR cacute
ENCODING 263
SWIDTH 631 0
DWIDTH 12 0
BBX 12 22 0 -5
BITMAP
0000
0000
0000
0300
0600
0C00
0000
1F80
31C0
20C0
6000
6000
6000
6000
7040
30C0
1F80
0000
0000
0000
0000
0000
ENDCHAR
STARTCHAR Ccircumflex
ENCODING 264
SWIDTH 631 0
DWIDTH 12 0
BBX 12 22 0 -5
BITMAP
0700
0D80
0000
0FC0
1060
2020
2000
6000
6000
6000
6000
6000
6000
2000
3020
1840
0F80
0000
0000
0000
0000
0000
ENDCHAR
STARTCHAR ccircumflex
ENCODING 265
SWIDTH 631 0
DWIDTH 12 0
BBX 12 22 0 -5
BITMAP
0000
0000
0400
0E00
1B00
3180
0000
1F80
31C0
20C0
6000
6000
6000
6000
7040
30C0
1F80
0000
0000
0000
0000
0000
ENDCHAR
STARTCHAR Cdotaccent
ENCODING 266
SWIDTH 631 0
DWIDTH 12 0
BBX 12 22 0 -5
BITMAP
0600
0600
0000
0FC0
1060
2020
2000
6000
6000
6000
6000
6000
6000
2000
3020
1840
0F80
0000
0000
0000
0000
0000
ENDCHAR
STARTCHAR cdotaccent
ENCODING 267
SWIDTH 631 0
DWIDTH 12 0
BBX 12 22 0 -5
BITMAP
0000
0000
0000
0000
0600
0600
0000
1F80
31C0
20C0
6000
6000
6000
6000
7040
30C0
1F80
0000
0000
0000
0000
0000
ENDCHAR
STARTCHAR Ccaron
ENCODING 268
SWIDTH 631 0
DWIDTH 12 0
BBX 12 22 0 -5
BITMAP
18C0
0D80
0700
0FC0
1060
2020
2000
6000
6000
6000
6000
6000
6000
2000
3020
1840
0F80
0000
0000
0000
0000
0000
ENDCHAR
STARTCHAR ccaron
ENCODING 269
SWIDTH 631 0
DWIDTH 12 0
BBX 12 22 0 -5
BITMAP
0000
0000
3180
1B00
0E00
0400
0000
1F80
31C0
20C0
6000
6000
6000
6000
7040
30C0
1F80
0000
0000
0000
0000
0000
ENDCHAR
STARTCHAR Dcaron
ENCODING 270
SWIDTH 631 0
DWIDTH 12 0
BBX 12 22 0 -5
BITMAP
3180
1B00
0E00
FF00
61C0
60C0
6060
6060
6060
6060
6060
6060
6060
6060
6040
6180
FE00
0000
0000
0000
0000
0000
ENDCHAR
STARTCHAR dcaron
ENCODING 271
SWIDTH 631 0
DWIDTH 12 0
BBX 12 22 0 -5
BITMAP
3180
1B00
0E60
04E0
0060
0060
0060
0F60
31E0
20E0
6060
6060
6060
6060
70E0
3960
1E70
0000
0000
0000
0000
0000
ENDCHAR
STARTCHAR Dstroke
ENCODING 272
SWIDTH 631 0
DWIDTH 12 0
BBX 12 22 0 -5
BITMAP
0000
0000
0000
FF00
61C0
60C0
6060
6060
6060
FC60
6060
6060
6060
6060
6040
6180
FE00
0000
0000
0000
0000
0000
ENDCHAR
STARTCHAR dstroke
ENCODING 273
SWIDTH 631 0
DWIDTH 12 0
BBX 12 22 0 -5
BITMAP
0000
0000
0060
00E0
0060
07F0
0060
0F60
31E0
20E0
6060
6060
6060
6060
70E0
3960
1E70
0000
0000
0000
0000
0000
ENDCHAR
STARTCHAR Emacron
ENCODING 274
SWIDTH 631 0
DWIDTH 12 0
BBX 12 22 0 -5
BITMAP
1F80
1F80
0000
7FC0
3040
3040
3000
3000
3080
3F80
3080
3000
3000
3000
3020
3020
7FE0
0000
0000
0000
0000
0000
ENDCHAR
STARTCHAR emacron
ENCODING 275
SWIDTH 631 0
DWIDTH 12 0
BBX 12 22 0 -5
BITMAP
0000
0000
0000
1F80
1F80
0000
0000
0F00
30C0
6060
6060
7FE0
6000
6000
3000
1860
0F80
0000
0000
0000
0000
0000
ENDCHAR
STARTCHAR Ebreve
ENCODING 276
SWIDTH 631 0
DWIDTH 12 0
BBX 12 22 0 -5
BITMAP
0D80
0D80
0700
7FC0
3040
3040
3000
3000
3080
3F80
3080
3000
3000
3000
3020
3020
7FE0
0000
0000
0000
0000
0000
ENDCHAR
STARTCHAR ebreve
ENCODING 277
SWIDTH 631 0
DWIDTH 12 0
BBX 12 22 0 -5
BITMAP
0000
0000
0D80
0D80
0700
0000
0000
0F00
30C0
6060
6060
7FE0
6000
6000
3000
1860
0F80
0000
0000
0000
0000
0000
ENDCHAR
STARTCHAR Edotaccent
ENCODING 278
SWIDTH 631 0
DWIDTH 12 0
BBX 12 22 0 -5
BITMAP
0600
0600
0000
7FC0
3040
3040
3000
3000
3080
3F80
3080
3000
3000
3000
3020
3020
7FE0
0000
0000
0000
0000
0000
ENDCHAR
STARTCHAR edotaccent
ENCODING 279
SWIDTH 631 0
DWIDTH 12 0
BBX 12 22 0 -5
BITMAP
0000
0000
0000
0000
0600
0600
0000
0F00
30C0
6060
6060
7FE0
6000
6000
3000
1860
0F80
0000
0000
0000
0000
0000
ENDCHAR
STARTCHAR Eogonek
ENCODING 280
SWIDTH 631 0
DWIDTH 12 0
BBX 12 22 0 -5
BITMAP
0000
0000
0000
7FC0
3040
3040
3000
3000
3080
3F80
3080
3000
3000
3000
3020
3020
7FE0
00C0
0180
0300
01E0
0000
ENDCHAR
STARTCHAR eogonek
ENCODING 281
SWIDTH 631 0
DWIDTH 12 0
BBX 12 22 0 -5
BITMAP
0000
0000
0000
0000
0000
0000
0000
0F00
30C0
6060
6060
7FE0
6000
6000
3000
1860
0F80
0600
0C00
1800
0F00
0000
ENDCHAR
STARTCHAR Ecaron
ENCODING 282
SWIDTH 631 0
DWIDTH 12 0
BBX 12 22 0 -5
BITMAP
18C0
0D80
0700
7FC0
3040
3040
3000
3000
3080
3F80
3080
3000
3000
3000
3020
3020
7FE0
0000
0000
0000
0000
0000
ENDCHAR
STARTCHAR ecaron
ENCODING 283
SWIDTH 631 0
DWIDTH 12 0
BBX 12 22 0 -5
BITMAP
0000
0000
18C0
0D80
0700
0200
0000
0F00
30C0
6060
6060
7FE0
6000
6000
3000
1860
0F80
0000
0000
0000
0000
0000
ENDCHAR
STARTCHAR Gcircumflex
ENCODING 284
SWIDTH 631 0
DWIDTH 12 0
BBX 12 22 0 -5
BITMAP
0700
0D80
0000
0FC0
1060
2020
2000
6000
6000
6000
6000
61F0
6060
2060
3060
1860
0F80
0000
0000
0000
0000
0000
ENDCHAR
STARTCHAR gcircumflex
ENCODING 285
SWIDTH 631 0
DWIDTH 12 0
BBX 12 22 0 -5
BITMAP
0000
0000
0200
0700
0D80
18C0
0000
1F20
31E0
60C0
60C0
60C0
3180
3F00
6000
7FC0
3FE0
2060
4020
4020
7FC0
3F80
ENDCHAR
STARTCHAR Gbreve
ENCODING 286
SWIDTH 631 0
DWIDTH 12 0
BBX 12 22 0 -5
BITMAP
0D80
0D80
0700
0FC0
1060
2020
2000
6000
6000
6000
6000
61F0
6060
2060
3060
1860
0F80
0000
0000
0000
0000
0000
ENDCHAR
STARTCHAR gbreve
ENCODING 287
SWIDTH 631 0
DWIDTH 12 0
BBX 12 22 0 -5
BITMAP
0000
0000
1B00
1B00
0E00
0000
0000
1F20
31E0
60C0
60C0
60C0
3180
3F00
6000
7FC0
3FE0
2060
4020
4020
7FC0
3F80
ENDCHAR
STARTCHAR Gdotaccent
ENCODING 288
SWIDTH 631 0
DWIDTH 12 0
BBX 12 22 0 -5
BITMAP
0300
0300
0000
0FC0
1060
2020
2000
6000
6000
6000
6000
61F0
6060
2060
3060
1860
0F80
0000
0000
0000
0000
0000
ENDCHAR
STARTCHAR gdotaccent
ENCODING 289
SWIDTH 631 0
DWIDTH 12 0
BBX 12 22 0 -5
BITMAP
0000
0000
0000
0000
0600
0600
0000
1F20
31E0
60C0
60C0
60C0
3180
3F00
6000
7FC0
3FE0
2060
4020
4020
7FC0
3F80
ENDCHAR
STARTCHAR Gcommaaccent
ENCODING 290
SWIDTH 631 0
DWIDTH 12 0
BBX 12 22 0 -5
BITMAP
0000
0000
0000
0FC0
1060
2020
2000
6000
6000
6000
6000
61F0
6060
2060
3060
1860
0F80
0600
0300
0180
0F00
0000
ENDCHAR
STARTCHAR gcommaaccent
ENCODING 291
SWIDTH 631 0
DWIDTH 12 0
BBX 12 22 0 -5
BITMAP
0000
0000
0600
0C00
0E00
0E00
0000
1F20
31E0
60C0
60C0
60C0
3180
3F00
6000
7FC0
3FE0
2060
4020
4020
7FC0
3F80
ENDCHAR
STARTCHAR Hcircumflex
ENCODING 292
SWIDTH 631 0
DWIDTH 12 0
BBX 12 22 0 -5
BITMAP
0700
0D80
0000
F0F0
6060
6060
6060
6060
6060
7FE0
6060
6060
6060
6060
6060
6060
F0F0
0000
0000
0000
0000
0000
ENDCHAR
STARTCHAR hcircumflex
ENCODING 293
SWIDTH 631 0
DWIDTH 12 0
BBX 12 22 0 -5
BITMAP
0000
0380
16C0
3000
7000
3000
3000
3780
39C0
30C0
30C0
30C0
30C0
30C0
30C0
30C0
79E0
0000
0000
0000
0000
0000
ENDCHAR
STARTCHAR Hstroke
ENCODING 294
SWIDTH 631 0
DWIDTH 12 0
BBX 12 22 0 -5
BITMAP
0000
0000
0000
F0F0
6060
6060
FFF0
6060
6060
7FE0
6060
6060
6060
6060
6060
6060
F0F0
0000
0000
0000
0000
0000
ENDCHAR
STARTCHAR hstroke
ENCODING 295
SWIDTH 631 0
DWIDTH 12 0
BBX 12 22 0 -5
BITMAP
0000
0000
1000
3000
7000
7E00
3000
3780
39C0
30C0
30C0
30C0
30C0
30C0
30C0
30C0
79E0
0000
0000
0000
0000
0000
ENDCHAR
STARTCHAR Itilde
ENCODING 296
SWIDTH 631 0
DWIDTH 12 0
BBX 12 22 0 -5
BITMAP
0E40
1FC0
1380
0000
1F80
0600
0600
0600
0600
0600
0600
0600
0600
0600
0600
0600
1F80
0000
0000
0000
0000
0000
ENDCHAR
STARTCHAR itilde
ENCODING 297
SWIDTH 631 0
DWIDTH 12 0
BBX 12 22 0 -5
BITMAP
0000
0000
1C80
3F80
2700
0000
0000
1E00
0600
0600
0600
0600
0600
0600
0600
0600
1F80
0000
0000
0000
0000
0000
ENDCHAR
STARTCHAR Imacron
ENCODING 298
SWIDTH 631 0
DWIDTH 12 0
BBX 12 22 0 -5
BITMAP
1F80
1F80
0000
1F80
0600
0600
0600
0600
0600
0600
0600
0600
0600
0600
0600
0600
1F80
0000
0000
0000
0000
0000
ENDCHAR
STARTCHAR imacron
ENCODING 299
SWIDTH 631 0
DWIDTH 12 0
BBX 12 22 0 -5
BITMAP
0000
0000
0000
1F80
1F80
0000
0000
1E00
0600
0600
0600
0600
0600
0600
0600
0600
1F80
0000
0000
0000
0000
0000
ENDCHAR
STARTCHAR Ibreve
ENCODING 300
SWIDTH 631 0
DWIDTH 12 0
BBX 12 22 0 -5
BITMAP
1980
1980
0F00
1F80
0600
0600
0600
0600
0600
0600
0600
0600
0600
0600
0600
0600
1F80
0000
0000
0000
0000
0000
ENDCHAR
STARTCHAR ibreve
ENCODING 301
SWIDTH 631 0
DWIDTH 12 0
BBX 12 22 0 -5
BITMAP
0000
0000
1B00
1B00
0E00
0000
0000
1E00
0600
0600
0600
0600
0600
0600
0600
0600
1F80
0000
0000
0000
0000
0000
ENDCHAR
STARTCHAR Iogonek
ENCODING 302
SWIDTH 631 0
DWIDTH 12 0
BBX 12 22 0 -5
BITMAP
0000
0000
0000
1F80
0600
0600
0600
0600
0600
0600
0600
0600
0600
0600
0600
0600
1F80
0600
0C00
1800
0F00
0000
ENDCHAR
STARTCHAR iogonek
ENCODING 303
SWIDTH 631 0
DWIDTH 12 0
BBX 12 22 0 -5
BITMAP
0000
0000
0000
0600
0600
0000
0000
1E00
0600
0600
0600
0600
0600
0600
0600
0600
1F80
0600
0C00
1800
0F00
0000
ENDCHAR
STARTCHAR Idotaccent
ENCODING 304
SWIDTH 631 0
DWIDTH 12 0
BBX 12 22 0 -5
BITMAP
0600
0600
0000
1F80
0600
0600
0600
0600
0600
0600
0600
0600
0600
0600
0600
0600
1F80
0000
0000
0000
0000
0000
ENDCHAR
STARTCHAR dotlessi
ENCODING 305
SWIDTH 631 0
DWIDTH 12 0
BBX 12 22 0 -5
BITMAP
0000
0000
0000
0000
0000
0000
0000
1E00
0600
0600
0600
0600
0600
0600
0600
0600
1F80
0000
0000
0000
0000
0000
ENDCHAR
STARTCHAR IJ
ENCODING 306
SWIDTH 631 0
DWIDTH 12 0
BBX 12 22 0 -5
BITMAP
0000
0000
0000
78F0
3060
3060
3060
3060
3060
3060
3060
3060
3060
3060
3060
3360
79C0
0000
0000
0000
0000
0000
ENDCHAR
STARTCHAR ij
ENCODING 307
SWIDTH 631 0
DWIDTH 12 0
BBX 12 22 0 -5
BITMAP
0000
0000
0000
3060
3060
0000
0000
70E0
3060
3060
3060
3060
3060
3060
3060
3060
7860
0060
0C60
0E40
07C0
0380
ENDCHAR
STARTCHAR Jcircumflex
ENCODING 308
SWIDTH 631 0
DWIDTH 12 0
BBX 12 22 0 -5
BITMAP
0E00
1B00
0000
1F80
0600
0600
0600
0600
0600
0600
0600
0600
0600
0600
0600
0600
0600
0600
0600
0400
3800
3000
ENDCHAR
STARTCHAR jcircumflex
ENCODING 309
SWIDTH 631 0
DWIDTH 12 0
BBX 12 22 0 -5
BITMAP
0000
0000
0200
0700
0D80
18C0
0000
03C0
00C0
00C0
00C0
00C0
00C0
00C0
00C0
00C0
00C0
20C0
30C0
3880
1F00
0E00
ENDCHAR
STARTCHAR Kcommaaccent
ENCODING 310
SWIDTH 631 0
DWIDTH 12 0
BBX 12 22 0 -5
BITMAP
0000
0000
0000
F0E0
6180
6300
6600
6C00
7800
7800
7C00
6E00
6700
6380
61C0
60E0
F070
0600
0300
0180
0F00
0000
ENDCHAR
STARTCHAR kcommaaccent
ENCODING 311
SWIDTH 631 0
DWIDTH 12 0
BBX 12 22 0 -5
BITMAP
0000
0000
6000
E000
6000
6000
6000
61C0
6300
6600
7C00
7800
7C00
6E00
6700
6380
F1E0
0600
0300
0180
0F00
0000
ENDCHAR
STARTCHAR kra
ENCODING 312
SWIDTH 631 0
DWIDTH 12 0
BBX 12 22 0 -5
BITMAP
0000
0000
0000
0000
0000
0000
6000
E1C0
6300
6600
7C00
7800
7C00
6E00
6700
6380
F1E0
0000
0000
0000
0000
0000
ENDCHAR
STARTCHAR Lacute
ENCODING 313
SWIDTH 631 0
DWIDTH 12 0
BBX 12 22 0 -5
BITMAP
0C00
1800
3000
7800
3000
3000
3000
3000
3000
3000
3000
3000
3000
3000
3020
3020
7FE0
0000
0000
0000
0000
0000
ENDCHAR
STARTCHAR lacute
ENCODING 314
SWIDTH 631 0
DWIDTH 12 0
BBX 12 22 0 -5
BITMAP
0300
0600
0C00
0000
1E00
0600
0600
0600
0600
0600
0600
0600
0600
0600
0600
0600
1F80
0000
0000
0000
0000
0000
ENDCHAR
STARTCHAR Lcommaaccent
ENCODING 315
SWIDTH 631 0
DWIDTH 12 0
BBX 12 22 0 -5
BITMAP
0000
0000
0000
7800
3000
3000
3000
3000
3000
3000
3000
3000
3000
3000
3020
3020
7FE0
0600
0300
0180
0F00
0000
ENDCHAR
STARTCHAR lcommaaccent
ENCODING 316
SWIDTH 631 0
DWIDTH 12 0
BBX 12 22 0 -5
BITMAP
0000
0000
1E00
0600
0600
0600
0600
0600
0600
0600
0600
0600
0600
0600
0600
0600
1F80
0600
0300
0180
0F00
0000
ENDCHAR
STARTCHAR Lcaron
ENCODING 317
SWIDTH 631 0
DWIDTH 12 0
BBX 12 22 0 -5
BITMAP
0C60
06C0
0380
7900
3000
3000
3000
3000
3000
3000
3000
3000
3000
3000
3020
3020
7FE0
0000
0000
0000
0000
0000
ENDCHAR
STARTCHAR lcaron
ENCODING 318
SWIDTH 631 0
DWIDTH 12 0
BBX 12 22 0 -5
BITMAP
18C0
0D80
0700
0000
1E00
0600
0600
0600
0600
0600
0600
0600
0600
0600
0600
0600
1F80
0000
0000
0000
0000
0000
ENDCHAR
STARTCHAR Ldot
ENCODING 319
SWIDTH 631 0
DWIDTH 12 0
BBX 12 22 0 -5
BITMAP
0000
0000
0000
7800
3000
3000
3000
3000
3180
3180
3000
3000
3000
3000
3020
3020
7FE0
0000
0000
0000
0000
0000
ENDCHAR
STARTCHAR ldot
ENCODING 320
SWIDTH 631 0
DWIDTH 12 0
BBX 12 22 0 -5
BITMAP
0000
0000
1E00
0600
0600
0600
0600
0600
0660
0660
0600
0600
0600
0600
0600
0600
1F80
0000
0000
0000
0000
0000
ENDCHAR
STARTCHAR Lslash
ENCODING 321
SWIDTH 631 0
DWIDTH 12 0
BBX 12 22 0 -5
BITMAP
0000
0000
0000
7800
3000
3000
3400
3800
3000
3000
7000
B000
3000
3000
3020
3020
7FE0
0000
0000
0000
0000
0000
ENDCHAR
STARTCHAR lslash
ENCODING 322
SWIDTH 631 0
DWIDTH 12 0
BBX 12 22 0 -5
BITMAP
0000
0000
1E00
0600
0600
0680
0700
0600
0600
0E00
1600
0600
0600
0600
0600
0600
1F80
0000
0000
0000
0000
0000
ENDCHAR
STARTCHAR Nacute
ENCODING 323
SWIDTH 631 0
DWIDTH 12 0
BBX 12 22 0 -5
BITMAP
0180
0300
0600
C070
6020
7020
7820
5820
4C20
4620
4720
4320
41A0
40E0
40E0
4060
E030
0000
0000
0000
0000
0000
ENDCHAR
STARTCHAR nacute
ENCODING 324
SWIDTH 631 0
DWIDTH 12 0
BBX 12 22 0 -5
BITMAP
0000
0000
0000
0180
0300
0600
0000
2780
79C0
30C0
30C0
30C0
30C0
30C0
30C0
30C0
79E0
0000
0000
0000
0000
0000
ENDCHAR
STARTCHAR Ncommaaccent
ENCODING 325
SWIDTH 631 0
DWIDTH 12 0
BBX 12 22 0 -5
BITMAP
0000
0000
0000
C070
6020
7020
7820
5820
4C20
4620
4720
4320
41A0
40E0
40E0
4060
E030
0600
0300
0180
0F00
0000
ENDCHAR
STARTCHAR ncommaaccent
ENCODING 326
SWIDTH 631 0
DWIDTH 12 0
BBX 12 22 0 -5
BITMAP
0000
0000
0000
0000
0000
0000
0000
2780
79C0
30C0
30C0
30C0
30C0
30C0
30C0
30C0
79E0
0600
0300
0180
0F00
0000
ENDCHAR
STARTCHAR Ncaron
ENCODING 327
SWIDTH 631 0
DWIDTH 12 0
BBX 12 22 0 -5
BITMAP
18C0
0D80
0700
C270
6020
7020
7820
5820
4C20
4620
4720
4320
41A0
40E0
40E0
4060
E030
0000
0000
0000
0000
0000
ENDCHAR
STARTCHAR ncaron
ENCODING 328
SWIDTH 631 0
DWIDTH 12 0
BBX 12 22 0 -5
BITMAP
0000
0000
18C0
0D80
0700
0200
0000
2780
79C0
30C0
30C0
30C0
30C0
30C0
30C0
30C0
79E0
0000
0000
0000
0000
0000
ENDCHAR
STARTCHAR napostrophe
ENCODING 329
SWIDTH 631 0
DWIDTH 12 0
BBX 12 22 0 -5
BITMAP
0000
E000
E000
6000
6000
4000
8000
2780
79C0
30C0
30C0
30C0
30C0
30C0
30C0
30C0
79E0
0000
0000
0000
0000
0000
ENDCHAR
STARTCHAR Eng
ENCODING 330
SWIDTH 631 0
DWIDTH 12 0
BBX 12 22 0 -5
BITMAP
0000
0000
0000
C070
6020
7020
7820
5820
4C20
4620
4720
4320
41A0
40E0
40E0
4060
E060
0060
0060
0040
0380
0300
ENDCHAR
STARTCHAR eng
ENCODING 331
SWIDTH 631 0
DWIDTH 12 0
BBX 12 22 0 -5
BITMAP
0000
0000
0000
0000
0000
0000
0000
2780
79C0
30C0
30C0
30C0
30C0
30C0
30C0
30C0
78C0
00C0
00C0
0080
0700
0600
ENDCHAR
STARTCHAR Omacron
ENCODING 332
SWIDTH 631 0
DWIDTH 12 0
BBX 12 22 0 -5
BITMAP
1F80
1F80
0000
0F00
11C0
20C0
2060
6060
6060
6060
6060
6060
6060
2040
3040
1880
0F00
0000
0000
0000
0000
0000
ENDCHAR
STARTCHAR omacron
ENCODING 333
SWIDTH 631 0
DWIDTH 12 0
BBX 12 22 0 -5
BITMAP
0000
0000
0000
1F80
1F80
0000
0000
0F80
11C0
20E0
6060
6060
6060
6060
7040
3880
1F00
0000
0000
0000
0000
0000
ENDCHAR
STARTCHAR Obreve
ENCODING 334
SWIDTH 631 0
DWIDTH 12 0
BBX 12 22 0 -5
BITMAP
0D80
0D80
0700
0F00
11C0
20C0
2060
6060
6060
6060
6060
6060
6060
2040
3040
1880
0F00
0000
0000
0000
0000
0000
ENDCHAR
STARTCHAR obreve
ENCODING 335
SWIDTH 631 0
DWIDTH 12 0
BBX 12 22 0 -5
BITMAP
0000
0000
0000
0D80
0D80
0700
0000
0F80
11C0
20E0
6060
6060
6060
6060
7040
3880
1F00
0000
0000
0000
0000
0000
ENDCHAR
STARTCHAR Ohungarumlaut
ENCODING 336
SWIDTH 631 0
DWIDTH 12 0
BBX 12 22 0 -5
BITMAP
0360
06C0
0D80
0F00
11C0
20C0
2060
6060
6060
6060
6060
6060
6060
2040
3040
1880
0F00
0000
0000
0000
0000
0000
ENDCHAR
STARTCHAR ohungarumlaut
ENCODING 337
SWIDTH 631 0
DWIDTH 12 0
BBX 12 22 0 -5
BITMAP
0000
0000
0000
06C0
0D80
1B00
0000
0F80
11C0
20E0
6060
6060
6060
6060
7040
3880
1F00
0000
0000
0000
0000
0000
ENDCHAR
STARTCHAR OE
ENCODING 338
SWIDTH 631 0
DWIDTH 12 0
BBX 12 22 0 -5
BITMAP
0000
0000
0000
1FE0
2620
4620
4600
C600
C610
C7F0
C610
C600
C600
4600
6610
3610
1FF0
0000
0000
0000
0000
0000
ENDCHAR
STARTCHAR oe
ENCODING 339
SWIDTH 631 0
DWIDTH 12 0
BBX 12 22 0 -5
BITMAP
0000
0000
0000
0000
0000
0000
0000
1DE0
2230
4230
C230
C3F0
C200
C200
E200
7330
3DE0
0000
0000
0000
0000
0000
ENDCHAR
STARTCHAR Racute
ENCODING 340
SWIDTH 631 0
DWIDTH 12 0
BBX 12 22 0 -5
BITMAP
0180
0300
0600
FF00
6180
60C0
60C0
60C0
6080
7F00
7C00
6E00
6700
6380
61C0
60E0
F070
0000
0000
0000
0000
0000
ENDCHAR
STARTCHAR racute
ENCODING 341
SWIDTH 631 0
DWIDTH 12 0
BBX 12 22 0 -5
BITMAP
0000
0000
0000
0300
0600
0C00
0000
7380
34C0
38C0
3000
3000
3000
3000
3000
3000
7800
0000
0000
0000
0000
0000
ENDCHAR
STARTCHAR Rcommaaccent
ENCODING 342
SWIDTH 631 0
DWIDTH 12 0
BBX 12 22 0 -5
BITMAP
0000
0000
0000
FF00
6180
60C0
60C0
60C0
6080
7F00
7C00
6E00
6700
6380
61C0
60E0
F070
0600
0300
0180
0F00
0000
ENDCHAR
STARTCHAR rcommaaccent
ENCODING 343
SWIDTH 631 0
DWIDTH 12 0
BBX 12 22 0 -5
BITMAP
0000
0000
0000
0000
0000
0000
0000
7380
34C0
38C0
3000
3000
3000
3000
3000
3000
7800
1800
0C00
0600
3C00
0000
ENDCHAR
STARTCHAR Rcaron
ENCODING 344
SWIDTH 631 0
DWIDTH 12 0
BBX 12 22 0 -5
BITMAP
3180
1B00
0E00
FF00
6180
60C0
60C0
60C0
6080
7F00
7C00
6E00
6700
6380
61C0
60E0
F070
0000
0000
0000
0000
0000
ENDCHAR
STARTCHAR rcaron
ENCODING 345
SWIDTH 631 0
DWIDTH 12 0
BBX 12 22 0 -5
BITMAP
0000
0000
3180
1B00
0E00
0400
0000
7380
34C0
38C0
3000
3000
3000
3000
3000
3000
7800
0000
0000
0000
0000
0000
ENDCHAR
STARTCHAR Sacute
ENCODING 346
SWIDTH 631 0
DWIDTH 12 0
BBX 12 22 0 -5
BITMAP
0180
0300
0600
1FE0
3060
6020
6020
7000
3C00
1E00
0780
01C0
00E0
4060
4060
60C0
7F80
0000
0000
0000
0000
0000
ENDCHAR
STARTCHAR sacute
ENCODING 347
SWIDTH 631 0
DWIDTH 12 0
BBX 12 22 0 -5
BITMAP
0000
0000
0000
0180
0300
0600
0000
1FC0
30C0
3040
3800
1E00
0780
01C0
20C0
30C0
3F80
0000
0000
0000
0000
0000
ENDCHAR
STARTCHAR Scircumflex
ENCODING 348
SWIDTH 631 0
DWIDTH 12 0
BBX 12 22 0 -5
BITMAP
0700
0D80
0000
1FE0
3060
6020
6020
7000
3C00
1E00
0780
01C0
00E0
4060
4060
60C0
7F80
0000
0000
0000
0000
0000
ENDCHAR
STARTCHAR scircumflex
ENCODING 349
SWIDTH 631 0
DWIDTH 12 0
BBX 12 22 0 -5
BITMAP
0000
0000
0200
0700
0D80
18C0
0000
1FC0
30C0
3040
3800
1E00
0780
01C0
20C0
30C0
3F80
0000
0000
0000
0000
0000
ENDCHAR
STARTCHAR Scedilla
ENCODING 350
SWIDTH 631 0
DWIDTH 12 0
BBX 12 22 0 -5
BITMAP
0000
0000
0000
1FE0
3060
6020
6020
7000
3C00
1E00
0780
01C0
00E0
4060
4060
60C0
7F80
0600
0300
0180
0F00
0000
ENDCHAR
STARTCHAR scedilla
ENCODING 351
SWIDTH 631 0
DWIDTH 12 0
BBX 12 22 0 -5
BITMAP
0000
0000
0000
0000
0000
0000
0000
1FC0
30C0
3040
3800
1E00
0780
01C0
20C0
30C0
3F80
0600
0300
0180
0F00
0000
ENDCHAR
STARTCHAR Scaron
ENCODING 352
SWIDTH 631 0
DWIDTH 12 0
BBX 12 22 0 -5
BITMAP
18C0
0D80
0700
1FE0
3060
6020
6020
7000
3C00
1E00
0780
01C0
00E0
4060
4060
60C0
7F80
0000
0000
0000
0000
0000
ENDCHAR
STARTCHAR scaron
ENCODING 353
SWIDTH 631 0
DWIDTH 12 0
BBX 12 22 0 -5
BITMAP
0000
0000
18C0
0D80
0700
0200
0000
1FC0
30C0
3040
3800
1E00
0780
01C0
20C0
30C0
3F80
0000
0000
0000
0000
0000
ENDCHAR
STARTCHAR Tcedilla
ENCODING 354
SWIDTH 631 0
DWIDTH 12 0
BBX 12 22 0 -5
BITMAP
0000
0000
0000
7FE0
4620
0600
0600
0600
0600
0600
0600
0600
0600
0600
0600
0600
1F80
0600
0300
0180
0F00
0000
ENDCHAR
STARTCHAR tcedilla
ENCODING 355
SWIDTH 631 0
DWIDTH 12 0
BBX 12 22 0 -5
BITMAP
0000
0000
0000
0000
0400
0400
0C00
7FC0
0C00
0C00
0C00
0C00
0C00
0C00
0C20
0E40
0780
0600
0300
0180
0F00
0000
ENDCHAR
STARTCHAR Tcaron
ENCODING 356
SWIDTH 631 0
DWIDTH 12 0
BBX 12 22 0 -5
BITMAP
18C0
0D80
0700
7FE0
4620
0600
0600
0600
0600
0600
0600
0600
0600
0600
0600
0600
1F80
0000
0000
0000
0000
0000
ENDCHAR
STARTCHAR tcaron
ENCODING 357
SWIDTH 631 0
DWIDTH 12 0
BBX 12 22 0 -5
BITMAP
3180
1B00
0E00
0000
0400
0400
0C00
7FC0
0C00
0C00
0C00
0C00
0C00
0C00
0C20
0E40
0780
0000
0000
0000
0000
0000
ENDCHAR
STARTCHAR Tstroke
ENCODING 358
SWIDTH 631 0
DWIDTH 12 0
BBX 12 22 0 -5
BITMAP
0000
0000
0000
7FE0
4620
0600
0600
0600
0600
3FC0
0600
0600
0600
0600
0600
0600
1F80
0000
0000
0000
0000
0000
ENDCHAR
STARTCHAR tstroke
ENCODING 359
SWIDTH 631 0
DWIDTH 12 0
BBX 12 22 0 -5
BITMAP
0000
0000
0000
0000
0400
0400
0C00
7FC0
0C00
0C00
3F80
0C00
0C00
0C00
0C20
0E40
0780
0000
0000
0000
0000
0000
ENDCHAR
STARTCHAR Utilde
ENCODING 360
SWIDTH 631 0
DWIDTH 12 0
BBX 12 22 0 -5
BITMAP
0E40
1FC0
1380
F070
6020
6020
6020
6020
6020
6020
6020
6020
6020
6020
7040
3FC0
1F80
0000
0000
0000
0000
0000
ENDCHAR
STARTCHAR utilde
ENCODING 361
SWIDTH 631 0
DWIDTH 12 0
BBX 12 22 0 -5
BITMAP
0000
0000
0000
0E40
1FC0
1380
0000
79E0
30C0
30C0
30C0
30C0
30C0
30C0
30C0
39C0
1E60
0000
0000
0000
0000
0000
ENDCHAR
STARTCHAR Umacron
ENCODING 362
SWIDTH 631 0
DWIDTH 12 0
BBX 12 22 0 -5
BITMAP
1F80
1F80
0000
F070
6020
6020
6020
6020
6020
6020
6020
6020
6020
6020
7040
3FC0
1F80
0000
0000
0000
0000
0000
ENDCHAR
STARTCHAR umacron
ENCODING 363
SWIDTH 631 0
DWIDTH 12 0
BBX 12 22 0 -5
BITMAP
0000
0000
0000
1F80
1F80
0000
0000
79E0
30C0
30C0
30C0
30C0
30C0
30C0
30C0
39C0
1E60
0000
0000
0000
0000
0000
ENDCHAR
STARTCHAR Ubreve
ENCODING 364
SWIDTH 631 0
DWIDTH 12 0
BBX 12 22 0 -5
BITMAP
0D80
0D80
0700
F070
6020
6020
6020
6020
6020
6020
6020
6020
6020
6020
7040
3FC0
1F80
0000
0000
0000
0000
0000
ENDCHAR
STARTCHAR ubreve
ENCODING 365
SWIDTH 631 0
DWIDTH 12 0
BBX 12 22 0 -5
BITMAP
0000
0000
0000
0D80
0D80
0700
0000
79E0
30C0
30C0
30C0
30C0
30C0
30C0
30C0
39C0
1E60
0000
0000
0000
0000
0000
ENDCHAR
STARTCHAR Uring
ENCODING 366
SWIDTH 631 0
DWIDTH 12 0
BBX 12 22 0 -5
BITMAP
0700
0D80
0D80
F770
6020
6020
6020
6020
6020
6020
6020
6020
6020
6020
7040
3FC0
1F80
0000
0000
0000
0000
0000
ENDCHAR
STARTCHAR uring
ENCODING 367
SWIDTH 631 0
DWIDTH 12 0
BBX 12 22 0 -5
BITMAP
0000
0000
0700
0D80
0D80
0700
0000
79E0
30C0
30C0
30C0
30C0
30C0
30C0
30C0
39C0
1E60
0000
0000
0000
0000
0000
ENDCHAR
STARTCHAR Uhungarumlaut
ENCODING 368
SWIDTH 631 0
DWIDTH 12 0
BBX 12 22 0 -5
BITMAP
06C0
0D80
1B00
F070
6020
6020
6020
6020
6020
6020
6020
6020
6020
6020
7040
3FC0
1F80
0000
0000
0000
0000
0000
ENDCHAR
STARTCHAR uhungarumlaut
ENCODING 369
SWIDTH 631 0
DWIDTH 12 0
BBX 12 22 0 -5
BITMAP
0000
0000
0000
06C0
0D80
1B00
0000
79E0
30C0
30C0
30C0
30C0
30C0
30C0
30C0
39C0
1E60
0000
0000
0000
0000
0000
ENDCHAR
STARTCHAR Uogonek
ENCODING 370
SWIDTH 631 0
DWIDTH 12 0
BBX 12 22 0 -5
BITMAP
0000
0000
0000
F070
6020
6020
6020
6020
6020
6020
6020
6020
6020
6020
7040
3FC0
1F80
0180
0300
0600
03C0
0000
ENDCHAR
STARTCHAR uogonek
ENCODING 371
SWIDTH 631 0
DWIDTH 12 0
BBX 12 22 0 -5
BITMAP
0000
0000
0000
0000
0000
0000
0000
79E0
30C0
30C0
30C0
30C0
30C0
30C0
30C0
39C0
1E60
00C0
0180
0300
01E0
0000
ENDCHAR
STARTCHAR Wcircumflex
ENCODING 372
SWIDTH 631 0
DWIDTH 12 0
BBX 12 22 0 -5
BITMAP
0700
0D80
0000
FEF0
6620
6620
6620
7620
7740
3340
3740
3BC0
3B80
1980
1980
1980
1980
0000
0000
0000
0000
0000
ENDCHAR
STARTCHAR wcircumflex
ENCODING 373
SWIDTH 631 0
DWIDTH 12 0
BBX 12 22 0 -5
BITMAP
0000
0000
0200
0700
0D80
18C0
0000
FF70
6620
6620
6620
3740
3B40
3B40
1980
1980
1980
0000
0000
0000
0000
0000
ENDCHAR
STARTCHAR Ycircumflex
ENCODING 374
SWIDTH 631 0
DWIDTH 12 0
BBX 12 22 0 -5
BITMAP
0700
0D80
0000
F070
6020
3040
1880
1880
0D00
0600
0600
0600
0600
0600
0600
0600
0F00
0000
0000
0000
0000
0000
ENDCHAR
STARTCHAR ycircumflex
ENCODING 375
SWIDTH 631 0
DWIDTH 12 0
BBX 12 22 0 -5
BITMAP
0000
0000
0200
0700
0D80
18C0
0000
F0F0
6020
3040
3040
1880
1880
0D00
0D00
0600
0600
0400
0C00
0800
7800
7000
ENDCHAR
STARTCHAR Ydieresis
ENCODING 376
SWIDTH 631 0
DWIDTH 12 0
BBX 12 22 0 -5
BITMAP
1980
1980
0000
F070
6020
3040
1880
1880
0D00
0600
0600
0600
0600
0600
0600
0600
0F00
0000
0000
0000
0000
0000
ENDCHAR
STARTCHAR Zacute
ENCODING 377
SWIDTH 631 0
DWIDTH 12 0
BBX 12 22 0 -5
BITMAP
0180
0300
0600
3FE0
20C0
00C0
0180
0180
0300
0300
0600
0600
0C00
0C00
1800
1820
3FE0
0000
0000
0000
0000
0000
ENDCHAR
STARTCHAR zacute
ENCODING 378
SWIDTH 631 0
DWIDTH 12 0
BBX 12 22 0 -5
BITMAP
0000
0000
0000
0300
0600
0C00
0000
7FE0
60E0
41C0
0380
0700
0E00
1C00
3820
7060
7FE0
0000
0000
0000
0000
0000
ENDCHAR
STARTCHAR Zdotaccent
ENCODING 379
SWIDTH 631 0
DWIDTH 12 0
BBX 12 22 0 -5
BITMAP
0300
0300
0000
3FE0
20C0
00C0
0180
0180
0300
0300
0600
0600
0C00
0C00
1800
1820
3FE0
0000
0000
0000
0000
0000
ENDCHAR
STARTCHAR zdotaccent
ENCODING 380
SWIDTH 631 0
DWIDTH 12 0
BBX 12 22 0 -5
BITMAP
0000
0000
0000
0000
0600
0600
0000
7FE0
60E0
41C0
0380
0700
0E00
1C00
3820
7060
7FE0
0000
0000
0000
0000
0000
ENDCHAR
STARTCHAR Zcaron
ENCODING 381
SWIDTH 631 0
DWIDTH 12 0
BBX 12 22 0 -5
BITMAP
18C0
0D80
0700
3FE0
20C0
00C0
0180
0180
0300
0300
0600
0600
0C00
0C00
1800
1820
3FE0
0000
0000
0000
0000
0000
ENDCHAR
STARTCHAR zcaron
ENCODING 382
SWIDTH 631 0
DWIDTH 12 0
BBX 12 22 0 -5
BITMAP
0000
0000
18C0
0D80
0700
0200
0000
7FE0
60E0
41C0
0380
0700
0E00
1C00
3820
7060
7FE0
0000
0000
0000
0000
0000
ENDCHAR
STARTCHAR longs
ENCODING 383
SWIDTH 631 0
DWIDTH 12 0
BBX 12 22 0 -5
BITMAP
0000
0000
0380
04C0
04C0
0C00
0C00
0C00
0C00
3C00
0C00
0C00
0C00
0C00
0C00
0C00
1E00
0000
0000
0000
0000
0000
ENDCHAR
STARTCHAR gravecomb
ENCODING 768
SWIDTH 631 0
DWIDTH 12 0
BBX 12 22 0 -5
BITMAP
0C00
0600
0300
0000
0000
0000
0000
0000
0000
0000
0000
0000
0000
0000
0000
0000
0000
0000
0000
0000
0000
0000
ENDCHAR
STARTCHAR acutecomb
ENCODING 769
SWIDTH 631 0
DWIDTH 12 0
BBX 12 22 0 -5
BITMAP
0300
0600
0C00
0000
0000
0000
0000
0000
0000
0000
0000
0000
0000
0000
0000
0000
0000
0000
0000
0000
0000
0000
ENDCHAR
STARTCHAR circumflexcomb
ENCODING 770
SWIDTH 631 0
DWIDTH 12 0
BBX 12 22 0 -5
BITMAP
0400
0E00
1B00
3180
0000
0000
0000
0000
0000
0000
0000
0000
0000
0000
0000
0000
0000
0000
0000
0000
0000
0000
ENDCHAR
STARTCHAR tildecomb
ENCODING 771
SWIDTH 631 0
DWIDTH 12 0
BBX 12 22 0 -5
BITMAP
1C80
3F80
2700
0000
0000
0000
0000
0000
0000
0000
0000
0000
0000
0000
0000
0000
0000
0000
0000
0000
0000
0000
ENDCHAR
STARTCHAR macroncomb
ENCODING 772
SWIDTH 631 0
DWIDTH 12 0
BBX 12 22 0 -5
BITMAP
0000
1F80
1F80
0000
0000
0000
0000
0000
0000
0000
0000
0000
0000
0000
0000
0000
0000
0000
0000
0000
0000
0000
ENDCHAR
STARTCHAR brevecomb
ENCODING 774
SWIDTH 631 0
DWIDTH 12 0
BBX 12 22 0 -5
BITMAP
1B00
1B00
0E00
0000
0000
0000
0000
0000
0000
0000
0000
0000
0000
0000
0000
0000
0000
0000
0000
0000
0000
0000
ENDCHAR
STARTCHAR diaresiscomb
ENCODING 776
SWIDTH 631 0
DWIDTH 12 0
BBX 12 22 0 -5
BITMAP
1980
1980
0000
0000
0000
0000
0000
0000
0000
0000
0000
0000
0000
0000
0000
0000
0000
0000
0000
0000
0000
0000
ENDCHAR
STARTCHAR ringcomb
ENCODING 778
SWIDTH 631 0
DWIDTH 12 0
BBX 12 22 0 -5
BITMAP
0E00
1B00
1B00
0E00
0000
0000
0000
0000
0000
0000
0000
0000
0000
0000
0000
0000
0000
0000
0000
0000
0000
0000
ENDCHAR
STARTCHAR caroncomb
ENCODING 780
SWIDTH 631 0
DWIDTH 12 0
BBX 12 22 0 -5
BITMAP
3180
1B00
0E00
0400
0000
0000
0000
0000
0000
0000
0000
0000
0000
0000
0000
0000
0000
0000
0000
0000
0000
0000
ENDCHAR
STARTCHAR cedillacomb
ENCODING 807
SWIDTH 631 0
DWIDTH 12 0
BBX 12 22 0 -5
BITMAP
0000
0000
0000
0000
0000
0000
0000
0000
0000
0000
0000
0000
0000
0000
0000
0000
0000
0600
0300
0180
0F00
0000
ENDCHAR
STARTCHAR ogonekcomb
ENCODING 808
SWIDTH 631 0
DWIDTH 12 0
BBX 12 22 0 -5
BITMAP
0000
0000
0000
0000
0000
0000
0000
0000
0000
0000
0000
0000
0000
0000
0000
0000
0000
0600
0C00
1800
0F00
0000
ENDCHAR
STARTCHAR Combining Low Line
ENCODING 818
SWIDTH 631 0
DWIDTH 12 0
BBX 12 22 0 -5
BITMAP
0000
0000
0000
0000
0000
0000
0000
0000
0000
0000
0000
0000
0000
0000
0000
0000
0000
0000
0000
0000
FFF0
FFF0
ENDCHAR
STARTCHAR hyphen
ENCODING 8208
SWIDTH 631 0
DWIDTH 12 0
BBX 12 22 0 -5
BITMAP
0000
0000
0000
0000
0000
0000
0000
0000
0000
0000
3FC0
3FC0
0000
0000
0000
0000
0000
0000
0000
0000
0000
0000
ENDCHAR
STARTCHAR char8209
ENCODING 8209
SWIDTH 631 0
DWIDTH 12 0
BBX 12 22 0 -5
BITMAP
0000
0000
0000
0000
0000
0000
0000
0000
0000
0000
3FC0
3FC0
0000
0000
0000
0000
0000
0000
0000
0000
0000
0000
ENDCHAR
STARTCHAR figuredash
ENCODING 8210
SWIDTH 631 0
DWIDTH 12 0
BBX 12 22 0 -5
BITMAP
0000
0000
0000
0000
0000
0000
0000
0000
0000
0000
3FC0
3FC0
0000
0000
0000
0000
0000
0000
0000
0000
0000
0000
ENDCHAR
STARTCHAR endash
ENCODING 8211
SWIDTH 631 0
DWIDTH 12 0
BBX 12 22 0 -5
BITMAP
0000
0000
0000
0000
0000
0000
0000
0000
0000
0000
3FC0
3FC0
0000
0000
0000
0000
0000
0000
0000
0000
0000
0000
ENDCHAR
STARTCHAR emdash
ENCODING 8212
SWIDTH 631 0
DWIDTH 12 0
BBX 12 22 0 -5
BITMAP
0000
0000
0000
0000
0000
0000
0000
0000
0000
0000
7FE0
7FE0
0000
0000
0000
0000
0000
0000
0000
0000
0000
0000
ENDCHAR
STARTCHAR afii00208
ENCODING 8213
SWIDTH 631 0
DWIDTH 12 0
BBX 12 22 0 -5
BITMAP
0000
0000
0000
0000
0000
0000
0000
0000
0000
0000
7FE0
7FE0
0000
0000
0000
0000
0000
0000
0000
0000
0000
0000
ENDCHAR
STARTCHAR dblverticalbar
ENCODING 8214
SWIDTH 631 0
DWIDTH 12 0
BBX 12 22 0 -5
BITMAP
0000
0000
0000
1980
1980
1980
1980
1980
1980
1980
1980
1980
1980
1980
1980
1980
1980
0000
0000
0000
0000
0000
ENDCHAR
STARTCHAR dbllowline
ENCODING 8215
SWIDTH 631 0
DWIDTH 12 0
BBX 12 22 0 -5
BITMAP
0000
0000
0000
0000
0000
0000
0000
0000
0000
0000
0000
0000
0000
0000
0000
0000
0000
0000
3FC0
0000
0000
3FC0
ENDCHAR
STARTCHAR quoteleft
ENCODING 8216
SWIDTH 631 0
DWIDTH 12 0
BBX 12 22 0 -5
BITMAP
0000
0100
0300
0600
0C00
0C00
0F00
0F00
0600
0000
0000
0000
0000
0000
0000
0000
0000
0000
0000
0000
0000
0000
ENDCHAR
STARTCHAR quoteright
ENCODING 8217
SWIDTH 631 0
DWIDTH 12 0
BBX 12 22 0 -5
BITMAP
0000
0600
0F00
0F00
0300
0300
0600
0C00
0800
0000
0000
0000
0000
0000
0000
0000
0000
0000
0000
0000
0000
0000
ENDCHAR
STARTCHAR quotesinglebase
ENCODING 8218
SWIDTH 631 0
DWIDTH 12 0
BBX 12 22 0 -5
BITMAP
0000
0000
0000
0000
0000
0000
0000
0000
0000
0000
0000
0000
0600
0F00
0F00
0300
0300
0600
0C00
0800
0000
0000
ENDCHAR
STARTCHAR quotereversed
ENCODING 8219
SWIDTH 631 0
DWIDTH 12 0
BBX 12 22 0 -5
BITMAP
0000
0600
0F00
0F00
0C00
0C00
0600
0300
0100
0000
0000
0000
0000
0000
0000
0000
0000
0000
0000
0000
0000
0000
ENDCHAR
STARTCHAR quotedblleft
ENCODING 8220
SWIDTH 631 0
DWIDTH 12 0
BBX 12 22 0 -5
BITMAP
0000
0CC0
1980
1980
1980
1980
1980
1980
0000
0000
0000
0000
0000
0000
0000
0000
0000
0000
0000
0000
0000
0000
ENDCHAR
STARTCHAR quotedblright
ENCODING 8221
SWIDTH 631 0
DWIDTH 12 0
BBX 12 22 0 -5
BITMAP
0000
1980
1980
1980
1980
1980
1980
3300
0000
0000
0000
0000
0000
0000
0000
0000
0000
0000
0000
0000
0000
0000
ENDCHAR
STARTCHAR quotedblbase
ENCODING 8222
SWIDTH 631 0
DWIDTH 12 0
BBX 12 22 0 -5
BITMAP
0000
0000
0000
0000
0000
0000
0000
0000
0000
0000
0000
0000
1980
1980
1980
1980
1980
3300
0000
0000
0000
0000
ENDCHAR
STARTCHAR char8223
ENCODING 8223
SWIDTH 631 0
DWIDTH 12 0
BBX 12 22 0 -5
BITMAP
0000
1980
1980
1980
1980
1980
1980
0CC0
0000
0000
0000
0000
0000
0000
0000
0000
0000
0000
0000
0000
0000
0000
ENDCHAR
STARTCHAR dagger
ENCODING 8224
SWIDTH 631 0
DWIDTH 12 0
BBX 12 22 0 -5
BITMAP
0000
0000
0000
0600
0600
0600
3FC0
3FC0
0600
0600
0600
0600
0600
0600
0600
0600
0600
0000
0000
0000
0000
0000
ENDCHAR
STARTCHAR daggerdbl
ENCODING 8225
SWIDTH 631 0
DWIDTH 12 0
BBX 12 22 0 -5
BITMAP
0000
0000
0000
0600
0600
0600
3FC0
3FC0
0600
0600
0600
0600
3FC0
3FC0
0600
0600
0600
0000
0000
0000
0000
0000
ENDCHAR
STARTCHAR bullet
ENCODING 8226
SWIDTH 631 0
DWIDTH 12 0
BBX 12 22 0 -5
BITMAP
0000
0000
0000
0000
0000
0000
0000
0000
0700
0F80
0F80
0F80
0700
0000
0000
0000
0000
0000
0000
0000
0000
0000
ENDCHAR
STARTCHAR ellipsis
ENCODING 8230
SWIDTH 631 0
DWIDTH 12 0
BBX 12 22 0 -5
BITMAP
0000
0000
0000
0000
0000
0000
0000
0000
0000
0000
0000
0000
0000
2220
7770
7770
2220
0000
0000
0000
0000
0000
ENDCHAR
STARTCHAR perthousand
ENCODING 8240
SWIDTH 631 0
DWIDTH 12 0
BBX 12 22 0 -5
BITMAP
0000
0000
0000
3180
4980
4B00
3300
0600
0600
0C00
0C00
1800
1800
36C0
3920
6920
66C0
0000
0000
0000
0000
0000
ENDCHAR
STARTCHAR minute
ENCODING 8242
SWIDTH 631 0
DWIDTH 12 0
BBX 12 22 0 -5
BITMAP
0000
0600
0600
0600
0600
0600
0600
0000
0000
0000
0000
0000
0000
0000
0000
0000
0000
0000
0000
0000
0000
0000
ENDCHAR
STARTCHAR second
ENCODING 8243
SWIDTH 631 0
DWIDTH 12 0
BBX 12 22 0 -5
BITMAP
0000
1980
1980
1980
1980
1980
1980
0000
0000
0000
0000
0000
0000
0000
0000
0000
0000
0000
0000
0000
0000
0000
ENDCHAR
STARTCHAR guilsinglleft
ENCODING 8249
SWIDTH 631 0
DWIDTH 12 0
BBX 12 22 0 -5
BITMAP
0000
0000
0000
0000
0000
0000
0000
0000
0180
0300
0600
0C00
1800
0C00
0600
0300
0180
0000
0000
0000
0000
0000
ENDCHAR
STARTCHAR guilsinglright
ENCODING 8250
SWIDTH 631 0
DWIDTH 12 0
BBX 12 22 0 -5
BITMAP
0000
0000
0000
0000
0000
0000
0000
0000
1800
0C00
0600
0300
0180
0300
0600
0C00
1800
0000
0000
0000
0000
0000
ENDCHAR
STARTCHAR exclamdbl
ENCODING 8252
SWIDTH 631 0
DWIDTH 12 0
BBX 12 22 0 -5
BITMAP
0000
0000
1980
1980
1980
1980
1980
1980
1980
1980
1980
1980
1980
0000
0000
1980
1980
0000
0000
0000
0000
0000
ENDCHAR
STARTCHAR overline
ENCODING 8254
SWIDTH 631 0
DWIDTH 12 0
BBX 12 22 0 -5
BITMAP
0000
3FC0
3FC0
0000
0000
0000
0000
0000
0000
0000
0000
0000
0000
0000
0000
0000
0000
0000
0000
0000
0000
0000
ENDCHAR
STARTCHAR Euro
ENCODING 8364
SWIDTH 631 0
DWIDTH 12 0
BBX 12 22 0 -5
BITMAP
0000
0000
0000
0F80
1040
2020
2000
6000
FF80
6000
6000
FF00
6000
2000
3000
1840
0F80
0000
0000
0000
0000
0000
ENDCHAR
STARTCHAR minus
ENCODING 8722
SWIDTH 631 0
DWIDTH 12 0
BBX 12 22 0 -5
BITMAP
0000
0000
0000
0000
0000
0000
0000
0000
0000
0000
3FC0
3FC0
0000
0000
0000
0000
0000
0000
0000
0000
0000
0000
ENDCHAR
STARTCHAR char9146
ENCODING 9146
SWIDTH 631 0
DWIDTH 12 0
BBX 12 22 0 -5
BITMAP
FFF0
FFF0
0000
0000
0000
0000
0000
0000
0000
0000
0000
0000
0000
0000
0000
0000
0000
0000
0000
0000
0000
0000
ENDCHAR
STARTCHAR char9147
ENCODING 9147
SWIDTH 631 0
DWIDTH 12 0
BBX 12 22 0 -5
BITMAP
0000
0000
0000
0000
0000
0000
FFF0
FFF0
0000
0000
0000
0000
0000
0000
0000
0000
0000
0000
0000
0000
0000
0000
ENDCHAR
STARTCHAR char9148
ENCODING 9148
SWIDTH 631 0
DWIDTH 12 0
BBX 12 22 0 -5
BITMAP
0000
0000
0000
0000
0000
0000
0000
0000
0000
0000
0000
0000
0000
0000
FFF0
FFF0
0000
0000
0000
0000
0000
0000
ENDCHAR
STARTCHAR char9149
ENCODING 9149
SWIDTH 631 0
DWIDTH 12 0
BBX 12 22 0 -5
BITMAP
0000
0000
0000
0000
0000
0000
0000
0000
0000
0000
0000
0000
0000
0000
0000
0000
0000
0000
0000
0000
FFF0
FFF0
ENDCHAR
STARTCHAR char18
ENCODING 9472
SWIDTH 631 0
DWIDTH 12 0
BBX 12 22 0 -5
BITMAP
0000
0000
0000
0000
0000
0000
0000
0000
0000
0000
FFF0
FFF0
0000
0000
0000
0000
0000
0000
0000
0000
0000
0000
ENDCHAR
STARTCHAR char18
ENCODING 9473
SWIDTH 631 0
DWIDTH 12 0
BBX 12 22 0 -5
BITMAP
0000
0000
0000
0000
0000
0000
0000
0000
0000
FFF0
FFF0
FFF0
FFF0
0000
0000
0000
0000
0000
0000
0000
0000
0000
ENDCHAR
STARTCHAR char9474
ENCODING 9474
SWIDTH 631 0
DWIDTH 12 0
BBX 12 22 0 -5
BITMAP
0600
0600
0600
0600
0600
0600
0600
0600
0600
0600
0600
0600
0600
0600
0600
0600
0600
0600
0600
0600
0600
0600
ENDCHAR
STARTCHAR char9474
ENCODING 9475
SWIDTH 631 0
DWIDTH 12 0
BBX 12 22 0 -5
BITMAP
0F00
0F00
0F00
0F00
0F00
0F00
0F00
0F00
0F00
0F00
0F00
0F00
0F00
0F00
0F00
0F00
0F00
0F00
0F00
0F00
0F00
0F00
ENDCHAR
STARTCHAR char13
ENCODING 9484
SWIDTH 631 0
DWIDTH 12 0
BBX 12 22 0 -5
BITMAP
0000
0000
0000
0000
0000
0000
0000
0000
0000
0000
07F0
07F0
0600
0600
0600
0600
0600
0600
0600
0600
0600
0600
ENDCHAR
STARTCHAR char13
ENCODING 9485
SWIDTH 631 0
DWIDTH 12 0
BBX 12 22 0 -5
BITMAP
0000
0000
0000
0000
0000
0000
0000
0000
0000
07F0
07F0
07F0
07F0
0600
0600
0600
0600
0600
0600
0600
0600
0600
ENDCHAR
STARTCHAR char13
ENCODING 9486
SWIDTH 631 0
DWIDTH 12 0
BBX 12 22 0 -5
BITMAP
0000
0000
0000
0000
0000
0000
0000
0000
0000
0000
0FF0
0FF0
0F00
0F00
0F00
0F00
0F00
0F00
0F00
0F00
0F00
0F00
ENDCHAR
STARTCHAR char13
ENCODING 9487
SWIDTH 631 0
DWIDTH 12 0
BBX 12 22 0 -5
BITMAP
0000
0000
0000
0000
0000
0000
0000
0000
0000
0FF0
0FF0
0FF0
0FF0
0F00
0F00
0F00
0F00
0F00
0F00
0F00
0F00
0F00
ENDCHAR
STARTCHAR char12
ENCODING 9488
SWIDTH 631 0
DWIDTH 12 0
BBX 12 22 0 -5
BITMAP
0000
0000
0000
0000
0000
0000
0000
0000
0000
0000
FE00
FE00
0600
0600
0600
0600
0600
0600
0600
0600
0600
0600
ENDCHAR
STARTCHAR char12
ENCODING 9489
SWIDTH 631 0
DWIDTH 12 0
BBX 12 22 0 -5
BITMAP
0000
0000
0000
0000
0000
0000
0000
0000
0000
FE00
FE00
FE00
FE00
0600
0600
0600
0600
0600
0600
0600
0600
0600
ENDCHAR
STARTCHAR char12
ENCODING 9490
SWIDTH 631 0
DWIDTH 12 0
BBX 12 22 0 -5
BITMAP
0000
0000
0000
0000
0000
0000
0000
0000
0000
0000
FF00
FF00
0F00
0F00
0F00
0F00
0F00
0F00
0F00
0F00
0F00
0F00
ENDCHAR
STARTCHAR char12
ENCODING 9491
SWIDTH 631 0
DWIDTH 12 0
BBX 12 22 0 -5
BITMAP
0000
0000
0000
0000
0000
0000
0000
0000
0000
FF00
FF00
FF00
FF00
0F00
0F00
0F00
0F00
0F00
0F00
0F00
0F00
0F00
ENDCHAR
STARTCHAR char14
ENCODING 9492
SWIDTH 631 0
DWIDTH 12 0
BBX 12 22 0 -5
BITMAP
0600
0600
0600
0600
0600
0600
0600
0600
0600
0600
07F0
07F0
0000
0000
0000
0000
0000
0000
0000
0000
0000
0000
ENDCHAR
STARTCHAR char14
ENCODING 9493
SWIDTH 631 0
DWIDTH 12 0
BBX 12 22 0 -5
BITMAP
0600
0600
0600
0600
0600
0600
0600
0600
0600
07F0
07F0
07F0
07F0
0000
0000
0000
0000
0000
0000
0000
0000
0000
ENDCHAR
STARTCHAR char14
ENCODING 9494
SWIDTH 631 0
DWIDTH 12 0
BBX 12 22 0 -5
BITMAP
0F00
0F00
0F00
0F00
0F00
0F00
0F00
0F00
0F00
0F00
0FF0
0FF0
0000
0000
0000
0000
0000
0000
0000
0000
0000
0000
ENDCHAR
STARTCHAR char14
ENCODING 9495
SWIDTH 631 0
DWIDTH 12 0
BBX 12 22 0 -5
BITMAP
0F00
0F00
0F00
0F00
0F00
0F00
0F00
0F00
0F00
0FF0
0FF0
0FF0
0FF0
0000
0000
0000
0000
0000
0000
0000
0000
0000
ENDCHAR
STARTCHAR char11
ENCODING 9496
SWIDTH 631 0
DWIDTH 12 0
BBX 12 22 0 -5
BITMAP
0600
0600
0600
0600
0600
0600
0600
0600
0600
0600
FE00
FE00
0000
0000
0000
0000
0000
0000
0000
0000
0000
0000
ENDCHAR
STARTCHAR char11
ENCODING 9497
SWIDTH 631 0
DWIDTH 12 0
BBX 12 22 0 -5
BITMAP
0600
0600
0600
0600
0600
0600
0600
0600
0600
FE00
FE00
FE00
FE00
0000
0000
0000
0000
0000
0000
0000
0000
0000
ENDCHAR
STARTCHAR char11
ENCODING 9498
SWIDTH 631 0
DWIDTH 12 0
BBX 12 22 0 -5
BITMAP
0F00
0F00
0F00
0F00
0F00
0F00
0F00
0F00
0F00
0F00
FF00
FF00
0000
0000
0000
0000
0000
0000
0000
0000
0000
0000
ENDCHAR
STARTCHAR char11
ENCODING 9499
SWIDTH 631 0
DWIDTH 12 0
BBX 12 22 0 -5
BITMAP
0F00
0F00
0F00
0F00
0F00
0F00
0F00
0F00
0F00
FF00
FF00
FF00
FF00
0000
0000
0000
0000
0000
0000
0000
0000
0000
ENDCHAR
STARTCHAR char21
ENCODING 9500
SWIDTH 631 0
DWIDTH 12 0
BBX 12 22 0 -5
BITMAP
0600
0600
0600
0600
0600
0600
0600
0600
0600
0600
07F0
07F0
0600
0600
0600
0600
0600
0600
0600
0600
0600
0600
ENDCHAR
STARTCHAR char21
ENCODING 9501
SWIDTH 631 0
DWIDTH 12 0
BBX 12 22 0 -5
BITMAP
0600
0600
0600
0600
0600
0600
0600
0600
0600
07F0
07F0
07F0
07F0
0600
0600
0600
0600
0600
0600
0600
0600
0600
ENDCHAR
STARTCHAR char21
ENCODING 9502
SWIDTH 631 0
DWIDTH 12 0
BBX 12 22 0 -5
BITMAP
0F00
0F00
0F00
0F00
0F00
0F00
0F00
0F00
0F00
0F00
0FF0
0FF0
0600
0600
0600
0600
0600
0600
0600
0600
0600
0600
ENDCHAR
STARTCHAR char21
ENCODING 9503
SWIDTH 631 0
DWIDTH 12 0
BBX 12 22 0 -5
BITMAP
0600
0600
0600
0600
0600
0600
0600
0600
0600
0600
0FF0
0FF0
0F00
0F00
0F00
0F00
0F00
0F00
0F00
0F00
0F00
0F00
ENDCHAR
STARTCHAR char21
ENCODING 9504
SWIDTH 631 0
DWIDTH 12 0
BBX 12 22 0 -5
BITMAP
0F00
0F00
0F00
0F00
0F00
0F00
0F00
0F00
0F00
0F00
0FF0
0FF0
0F00
0F00
0F00
0F00
0F00
0F00
0F00
0F00
0F00
0F00
ENDCHAR
STARTCHAR char21
ENCODING 9505
SWIDTH 631 0
DWIDTH 12 0
BBX 12 22 0 -5
BITMAP
0F00
0F00
0F00
0F00
0F00
0F00
0F00
0F00
0F00
0FF0
0FF0
0FF0
0FF0
0600
0600
0600
0600
0600
0600
0600
0600
0600
ENDCHAR
STARTCHAR char21
ENCODING 9506
SWIDTH 631 0
DWIDTH 12 0
BBX 12 22 0 -5
BITMAP
0600
0600
0600
0600
0600
0600
0600
0600
0600
0FF0
0FF0
0FF0
0FF0
0F00
0F00
0F00
0F00
0F00
0F00
0F00
0F00
0F00
ENDCHAR
STARTCHAR char21
ENCODING 9507
SWIDTH 631 0
DWIDTH 12 0
BBX 12 22 0 -5
BITMAP
0F00
0F00
0F00
0F00
0F00
0F00
0F00
0F00
0F00
0FF0
0FF0
0FF0
0FF0
0F00
0F00
0F00
0F00
0F00
0F00
0F00
0F00
0F00
ENDCHAR
STARTCHAR char22
ENCODING 9508
SWIDTH 631 0
DWIDTH 12 0
BBX 12 22 0 -5
BITMAP
0600
0600
0600
0600
0600
0600
0600
0600
0600
0600
FE00
FE00
0600
0600
0600
0600
0600
0600
0600
0600
0600
0600
ENDCHAR
STARTCHAR char22
ENCODING 9509
SWIDTH 631 0
DWIDTH 12 0
BBX 12 22 0 -5
BITMAP
0600
0600
0600
0600
0600
0600
0600
0600
0600
FE00
FE00
FE00
FE00
0600
0600
0600
0600
0600
0600
0600
0600
0600
ENDCHAR
STARTCHAR char22
ENCODING 9510
SWIDTH 631 0
DWIDTH 12 0
BBX 12 22 0 -5
BITMAP
0F00
0F00
0F00
0F00
0F00
0F00
0F00
0F00
0F00
0F00
FF00
FF00
0600
0600
0600
0600
0600
0600
0600
0600
0600
0600
ENDCHAR
STARTCHAR char22
ENCODING 9511
SWIDTH 631 0
DWIDTH 12 0
BBX 12 22 0 -5
BITMAP
0600
0600
0600
0600
0600
0600
0600
0600
0600
0600
FF00
FF00
0F00
0F00
0F00
0F00
0F00
0F00
0F00
0F00
0F00
0F00
ENDCHAR
STARTCHAR char22
ENCODING 9512
SWIDTH 631 0
DWIDTH 12 0
BBX 12 22 0 -5
BITMAP
0F00
0F00
0F00
0F00
0F00
0F00
0F00
0F00
0F00
0F00
FF00
FF00
0F00
0F00
0F00
0F00
0F00
0F00
0F00
0F00
0F00
0F00
ENDCHAR
STARTCHAR char22
ENCODING 9513
SWIDTH 631 0
DWIDTH 12 0
BBX 12 22 0 -5
BITMAP
0F00
0F00
0F00
0F00
0F00
0F00
0F00
0F00
0F00
FF00
FF00
FF00
FF00
0600
0600
0600
0600
0600
0600
0600
0600
0600
ENDCHAR
STARTCHAR char22
ENCODING 9514
SWIDTH 631 0
DWIDTH 12 0
BBX 12 22 0 -5
BITMAP
0600
0600
0600
0600
0600
0600
0600
0600
0600
FF00
FF00
FF00
FF00
0F00
0F00
0F00
0F00
0F00
0F00
0F00
0F00
0F00
ENDCHAR
STARTCHAR char22
ENCODING 9515
SWIDTH 631 0
DWIDTH 12 0
BBX 12 22 0 -5
BITMAP
0F00
0F00
0F00
0F00
0F00
0F00
0F00
0F00
0F00
FF00
FF00
FF00
FF00
0F00
0F00
0F00
0F00
0F00
0F00
0F00
0F00
0F00
ENDCHAR
STARTCHAR char24
ENCODING 9516
SWIDTH 631 0
DWIDTH 12 0
BBX 12 22 0 -5
BITMAP
0000
0000
0000
0000
0000
0000
0000
0000
0000
0000
FFF0
FFF0
0600
0600
0600
0600
0600
0600
0600
0600
0600
0600
ENDCHAR
STARTCHAR char24
ENCODING 9517
SWIDTH 631 0
DWIDTH 12 0
BBX 12 22 0 -5
BITMAP
0000
0000
0000
0000
0000
0000
0000
0000
0000
FE00
FFF0
FFF0
FE00
0600
0600
0600
0600
0600
0600
0600
0600
0600
ENDCHAR
STARTCHAR char24
ENCODING 9518
SWIDTH 631 0
DWIDTH 12 0
BBX 12 22 0 -5
BITMAP
0000
0000
0000
0000
0000
0000
0000
0000
0000
07F0
FFF0
FFF0
07F0
0600
0600
0600
0600
0600
0600
0600
0600
0600
ENDCHAR
STARTCHAR char24
ENCODING 9519
SWIDTH 631 0
DWIDTH 12 0
BBX 12 22 0 -5
BITMAP
0000
0000
0000
0000
0000
0000
0000
0000
0000
FFF0
FFF0
FFF0
FFF0
0600
0600
0600
0600
0600
0600
0600
0600
0600
ENDCHAR
STARTCHAR char24
ENCODING 9520
SWIDTH 631 0
DWIDTH 12 0
BBX 12 22 0 -5
BITMAP
0000
0000
0000
0000
0000
0000
0000
0000
0000
0000
FFF0
FFF0
0F00
0F00
0F00
0F00
0F00
0F00
0F00
0F00
0F00
0F00
ENDCHAR
STARTCHAR char24
ENCODING 9521
SWIDTH 631 0
DWIDTH 12 0
BBX 12 22 0 -5
BITMAP
0000
0000
0000
0000
0000
0000
0000
0000
0000
FF00
FFF0
FFF0
FF00
0F00
0F00
0F00
0F00
0F00
0F00
0F00
0F00
0F00
ENDCHAR
STARTCHAR char24
ENCODING 9522
SWIDTH 631 0
DWIDTH 12 0
BBX 12 22 0 -5
BITMAP
0000
0000
0000
0000
0000
0000
0000
0000
0000
0FF0
FFF0
FFF0
0FF0
0F00
0F00
0F00
0F00
0F00
0F00
0F00
0F00
0F00
ENDCHAR
STARTCHAR char24
ENCODING 9523
SWIDTH 631 0
DWIDTH 12 0
BBX 12 22 0 -5
BITMAP
0000
0000
0000
0000
0000
0000
0000
0000
0000
FFF0
FFF0
FFF0
FFF0
0F00
0F00
0F00
0F00
0F00
0F00
0F00
0F00
0F00
ENDCHAR
STARTCHAR char23
ENCODING 9524
SWIDTH 631 0
DWIDTH 12 0
BBX 12 22 0 -5
BITMAP
0600
0600
0600
0600
0600
0600
0600
0600
0600
0600
FFF0
FFF0
0000
0000
0000
0000
0000
0000
0000
0000
0000
0000
ENDCHAR
STARTCHAR char23
ENCODING 9525
SWIDTH 631 0
DWIDTH 12 0
BBX 12 22 0 -5
BITMAP
0600
0600
0600
0600
0600
0600
0600
0600
0600
FE00
FFF0
FFF0
FE00
0000
0000
0000
0000
0000
0000
0000
0000
0000
ENDCHAR
STARTCHAR char23
ENCODING 9526
SWIDTH 631 0
DWIDTH 12 0
BBX 12 22 0 -5
BITMAP
0600
0600
0600
0600
0600
0600
0600
0600
0600
07F0
FFF0
FFF0
07F0
0000
0000
0000
0000
0000
0000
0000
0000
0000
ENDCHAR
STARTCHAR char23
ENCODING 9527
SWIDTH 631 0
DWIDTH 12 0
BBX 12 22 0 -5
BITMAP
0600
0600
0600
0600
0600
0600
0600
0600
0600
FFF0
FFF0
FFF0
FFF0
0000
0000
0000
0000
0000
0000
0000
0000
0000
ENDCHAR
STARTCHAR char23
ENCODING 9528
SWIDTH 631 0
DWIDTH 12 0
BBX 12 22 0 -5
BITMAP
0F00
0F00
0F00
0F00
0F00
0F00
0F00
0F00
0F00
0F00
FFF0
FFF0
0000
0000
0000
0000
0000
0000
0000
0000
0000
0000
ENDCHAR
STARTCHAR char23
ENCODING 9529
SWIDTH 631 0
DWIDTH 12 0
BBX 12 22 0 -5
BITMAP
0F00
0F00
0F00
0F00
0F00
0F00
0F00
0F00
0F00
FF00
FFF0
FFF0
FF00
0000
0000
0000
0000
0000
0000
0000
0000
0000
ENDCHAR
STARTCHAR char23
ENCODING 9530
SWIDTH 631 0
DWIDTH 12 0
BBX 12 22 0 -5
BITMAP
0F00
0F00
0F00
0F00
0F00
0F00
0F00
0F00
0F00
0FF0
FFF0
FFF0
0FF0
0000
0000
0000
0000
0000
0000
0000
0000
0000
ENDCHAR
STARTCHAR char23
ENCODING 9531
SWIDTH 631 0
DWIDTH 12 0
BBX 12 22 0 -5
BITMAP
0F00
0F00
0F00
0F00
0F00
0F00
0F00
0F00
0F00
FFF0
FFF0
FFF0
FFF0
0000
0000
0000
0000
0000
0000
0000
0000
0000
ENDCHAR
STARTCHAR char9532
ENCODING 9532
SWIDTH 631 0
DWIDTH 12 0
BBX 12 22 0 -5
BITMAP
0600
0600
0600
0600
0600
0600
0600
0600
0600
0600
FFF0
FFF0
0600
0600
0600
0600
0600
0600
0600
0600
0600
0600
ENDCHAR
STARTCHAR char9532
ENCODING 9533
SWIDTH 631 0
DWIDTH 12 0
BBX 12 22 0 -5
BITMAP
0600
0600
0600
0600
0600
0600
0600
0600
0600
FE00
FFF0
FFF0
FE00
0600
0600
0600
0600
0600
0600
0600
0600
0600
ENDCHAR
STARTCHAR char9532
ENCODING 9534
SWIDTH 631 0
DWIDTH 12 0
BBX 12 22 0 -5
BITMAP
0600
0600
0600
0600
0600
0600
0600
0600
0600
07F0
FFF0
FFF0
07F0
0600
0600
0600
0600
0600
0600
0600
0600
0600
ENDCHAR
STARTCHAR char9532
ENCODING 9535
SWIDTH 631 0
DWIDTH 12 0
BBX 12 22 0 -5
BITMAP
0600
0600
0600
0600
0600
0600
0600
0600
0600
FFF0
FFF0
FFF0
FFF0
0600
0600
0600
0600
0600
0600
0600
0600
0600
ENDCHAR
STARTCHAR char9532
ENCODING 9536
SWIDTH 631 0
DWIDTH 12 0
BBX 12 22 0 -5
BITMAP
0F00
0F00
0F00
0F00
0F00
0F00
0F00
0F00
0F00
0F00
FFF0
FFF0
0600
0600
0600
0600
0600
0600
0600
0600
0600
0600
ENDCHAR
STARTCHAR char9532
ENCODING 9537
SWIDTH 631 0
DWIDTH 12 0
BBX 12 22 0 -5
BITMAP
0600
0600
0600
0600
0600
0600
0600
0600
0600
0600
FFF0
FFF0
0F00
0F00
0F00
0F00
0F00
0F00
0F00
0F00
0F00
0F00
ENDCHAR
STARTCHAR char9532
ENCODING 9538
SWIDTH 631 0
DWIDTH 12 0
BBX 12 22 0 -5
BITMAP
0F00
0F00
0F00
0F00
0F00
0F00
0F00
0F00
0F00
0F00
FFF0
FFF0
0F00
0F00
0F00
0F00
0F00
0F00
0F00
0F00
0F00
0F00
ENDCHAR
STARTCHAR char9532
ENCODING 9539
SWIDTH 631 0
DWIDTH 12 0
BBX 12 22 0 -5
BITMAP
0F00
0F00
0F00
0F00
0F00
0F00
0F00
0F00
0F00
FF00
FFF0
FFF0
FE00
0600
0600
0600
0600
0600
0600
0600
0600
0600
ENDCHAR
STARTCHAR char9532
ENCODING 9540
SWIDTH 631 0
DWIDTH 12 0
BBX 12 22 0 -5
BITMAP
0F00
0F00
0F00
0F00
0F00
0F00
0F00
0F00
0F00
0FF0
FFF0
FFF0
07F0
0600
0600
0600
0600
0600
0600
0600
0600
0600
ENDCHAR
STARTCHAR char9532
ENCODING 9541
SWIDTH 631 0
DWIDTH 12 0
BBX 12 22 0 -5
BITMAP
0600
0600
0600
0600
0600
0600
0600
0600
0600
FE00
FFF0
FFF0
FF00
0F00
0F00
0F00
0F00
0F00
0F00
0F00
0F00
0F00
ENDCHAR
STARTCHAR char9532
ENCODING 9542
SWIDTH 631 0
DWIDTH 12 0
BBX 12 22 0 -5
BITMAP
0600
0600
0600
0600
0600
0600
0600
0600
0600
07F0
FFF0
FFF0
0FF0
0F00
0F00
0F00
0F00
0F00
0F00
0F00
0F00
0F00
ENDCHAR
STARTCHAR char9532
ENCODING 9543
SWIDTH 631 0
DWIDTH 12 0
BBX 12 22 0 -5
BITMAP
0F00
0F00
0F00
0F00
0F00
0F00
0F00
0F00
0F00
FFF0
FFF0
FFF0
FFF0
0600
0600
0600
0600
0600
0600
0600
0600
0600
ENDCHAR
STARTCHAR char9532
ENCODING 9544
SWIDTH 631 0
DWIDTH 12 0
BBX 12 22 0 -5
BITMAP
0600
0600
0600
0600
0600
0600
0600
0600
0600
FFF0
FFF0
FFF0
FFF0
0F00
0F00
0F00
0F00
0F00
0F00
0F00
0F00
0F00
ENDCHAR
STARTCHAR char9532
ENCODING 9545
SWIDTH 631 0
DWIDTH 12 0
BBX 12 22 0 -5
BITMAP
0F00
0F00
0F00
0F00
0F00
0F00
0F00
0F00
0F00
FF00
FFF0
FFF0
FF00
0F00
0F00
0F00
0F00
0F00
0F00
0F00
0F00
0F00
ENDCHAR
STARTCHAR char9532
ENCODING 9546
SWIDTH 631 0
DWIDTH 12 0
BBX 12 22 0 -5
BITMAP
0F00
0F00
0F00
0F00
0F00
0F00
0F00
0F00
0F00
0FF0
FFF0
FFF0
0FF0
0F00
0F00
0F00
0F00
0F00
0F00
0F00
0F00
0F00
ENDCHAR
STARTCHAR char9532
ENCODING 9547
SWIDTH 631 0
DWIDTH 12 0
BBX 12 22 0 -5
BITMAP
0F00
0F00
0F00
0F00
0F00
0F00
0F00
0F00
0F00
FFF0
FFF0
FFF0
FFF0
0F00
0F00
0F00
0F00
0F00
0F00
0F00
0F00
0F00
ENDCHAR
STARTCHAR char9552
ENCODING 9552
SWIDTH 631 0
DWIDTH 12 0
BBX 12 22 0 -5
BITMAP
0000
0000
0000
0000
0000
0000
0000
0000
0000
FFF0
0000
0000
FFF0
0000
0000
0000
0000
0000
0000
0000
0000
0000
ENDCHAR
STARTCHAR char9552
ENCODING 9553
SWIDTH 631 0
DWIDTH 12 0
BBX 12 22 0 -5
BITMAP
0900
0900
0900
0900
0900
0900
0900
0900
0900
0900
0900
0900
0900
0900
0900
0900
0900
0900
0900
0900
0900
0900
ENDCHAR
STARTCHAR char9552
ENCODING 9554
SWIDTH 631 0
DWIDTH 12 0
BBX 12 22 0 -5
BITMAP
0000
0000
0000
0000
0000
0000
0000
0000
0000
07F0
0600
0600
07F0
0600
0600
0600
0600
0600
0600
0600
0600
0600
ENDCHAR
STARTCHAR char9552
ENCODING 9555
SWIDTH 631 0
DWIDTH 12 0
BBX 12 22 0 -5
BITMAP
0000
0000
0000
0000
0000
0000
0000
0000
0000
0000
0FF0
0FF0
0900
0900
0900
0900
0900
0900
0900
0900
0900
0900
ENDCHAR
STARTCHAR char9552
ENCODING 9556
SWIDTH 631 0
DWIDTH 12 0
BBX 12 22 0 -5
BITMAP
0000
0000
0000
0000
0000
0000
0000
0000
0000
0FF0
0800
0800
09F0
0900
0900
0900
0900
0900
0900
0900
0900
0900
ENDCHAR
STARTCHAR char9552
ENCODING 9557
SWIDTH 631 0
DWIDTH 12 0
BBX 12 22 0 -5
BITMAP
0000
0000
0000
0000
0000
0000
0000
0000
0000
FE00
0600
0600
FE00
0600
0600
0600
0600
0600
0600
0600
0600
0600
ENDCHAR
STARTCHAR char9552
ENCODING 9558
SWIDTH 631 0
DWIDTH 12 0
BBX 12 22 0 -5
BITMAP
0000
0000
0000
0000
0000
0000
0000
0000
0000
0000
FF00
FF00
0900
0900
0900
0900
0900
0900
0900
0900
0900
0900
ENDCHAR
STARTCHAR char9552
ENCODING 9559
SWIDTH 631 0
DWIDTH 12 0
BBX 12 22 0 -5
BITMAP
0000
0000
0000
0000
0000
0000
0000
0000
0000
FF00
0100
0100
F900
0900
0900
0900
0900
0900
0900
0900
0900
0900
ENDCHAR
STARTCHAR char9552
ENCODING 9560
SWIDTH 631 0
DWIDTH 12 0
BBX 12 22 0 -5
BITMAP
0600
0600
0600
0600
0600
0600
0600
0600
0600
07F0
0600
0600
07F0
0000
0000
0000
0000
0000
0000
0000
0000
0000
ENDCHAR
STARTCHAR char9552
ENCODING 9561
SWIDTH 631 0
DWIDTH 12 0
BBX 12 22 0 -5
BITMAP
0900
0900
0900
0900
0900
0900
0900
0900
0900
0900
0FF0
0FF0
0000
0000
0000
0000
0000
0000
0000
0000
0000
0000
ENDCHAR
STARTCHAR char9552
ENCODING 9562
SWIDTH 631 0
DWIDTH 12 0
BBX 12 22 0 -5
BITMAP
0900
0900
0900
0900
0900
0900
0900
0900
0900
09F0
0800
0800
0FF0
0000
0000
0000
0000
0000
0000
0000
0000
0000
ENDCHAR
STARTCHAR char9552
ENCODING 9563
SWIDTH 631 0
DWIDTH 12 0
BBX 12 22 0 -5
BITMAP
0600
0600
0600
0600
0600
0600
0600
0600
0600
FE00
0600
0600
FE00
0000
0000
0000
0000
0000
0000
0000
0000
0000
ENDCHAR
STARTCHAR char9552
ENCODING 9564
SWIDTH 631 0
DWIDTH 12 0
BBX 12 22 0 -5
BITMAP
0900
0900
0900
0900
0900
0900
0900
0900
0900
0900
FF00
FF00
0000
0000
0000
0000
0000
0000
0000
0000
0000
0000
ENDCHAR
STARTCHAR char9552
ENCODING 9565
SWIDTH 631 0
DWIDTH 12 0
BBX 12 22 0 -5
BITMAP
0900
0900
0900
0900
0900
0900
0900
0900
0900
F900
0100
0100
FF00
0000
0000
0000
0000
0000
0000
0000
0000
0000
ENDCHAR
STARTCHAR char9552
ENCODING 9566
SWIDTH 631 0
DWIDTH 12 0
BBX 12 22 0 -5
BITMAP
0600
0600
0600
0600
0600
0600
0600
0600
0600
07F0
0600
0600
07F0
0600
0600
0600
0600
0600
0600
0600
0600
0600
ENDCHAR
STARTCHAR char9552
ENCODING 9567
SWIDTH 631 0
DWIDTH 12 0
BBX 12 22 0 -5
BITMAP
0900
0900
0900
0900
0900
0900
0900
0900
0900
0900
0FF0
0FF0
0900
0900
0900
0900
0900
0900
0900
0900
0900
0900
ENDCHAR
STARTCHAR char9552
ENCODING 9568
SWIDTH 631 0
DWIDTH 12 0
BBX 12 22 0 -5
BITMAP
0900
0900
0900
0900
0900
0900
0900
0900
0900
09F0
0800
0800
09F0
0900
0900
0900
0900
0900
0900
0900
0900
0900
ENDCHAR
STARTCHAR char9552
ENCODING 9569
SWIDTH 631 0
DWIDTH 12 0
BBX 12 22 0 -5
BITMAP
0600
0600
0600
0600
0600
0600
0600
0600
0600
FE00
0600
0600
FE00
0600
0600
0600
0600
0600
0600
0600
0600
0600
ENDCHAR
STARTCHAR char9552
ENCODING 9570
SWIDTH 631 0
DWIDTH 12 0
BBX 12 22 0 -5
BITMAP
0900
0900
0900
0900
0900
0900
0900
0900
0900
0900
FF00
FF00
0900
0900
0900
0900
0900
0900
0900
0900
0900
0900
ENDCHAR
STARTCHAR char9552
ENCODING 9571
SWIDTH 631 0
DWIDTH 12 0
BBX 12 22 0 -5
BITMAP
0900
0900
0900
0900
0900
0900
0900
0900
0900
F900
0100
0100
F900
0900
0900
0900
0900
0900
0900
0900
0900
0900
ENDCHAR
STARTCHAR char9552
ENCODING 9572
SWIDTH 631 0
DWIDTH 12 0
BBX 12 22 0 -5
BITMAP
0000
0000
0000
0000
0000
0000
0000
0000
0000
FFF0
0000
0000
FFF0
0600
0600
0600
0600
0600
0600
0600
0600
0600
ENDCHAR
STARTCHAR char9552
ENCODING 9573
SWIDTH 631 0
DWIDTH 12 0
BBX 12 22 0 -5
BITMAP
0000
0000
0000
0000
0000
0000
0000
0000
0000
0000
FFF0
FFF0
0900
0900
0900
0900
0900
0900
0900
0900
0900
0900
ENDCHAR
STARTCHAR char9552
ENCODING 9574
SWIDTH 631 0
DWIDTH 12 0
BBX 12 22 0 -5
BITMAP
0000
0000
0000
0000
0000
0000
0000
0000
0000
FFF0
0000
0000
F9F0
0900
0900
0900
0900
0900
0900
0900
0900
0900
ENDCHAR
STARTCHAR char9552
ENCODING 9575
SWIDTH 631 0
DWIDTH 12 0
BBX 12 22 0 -5
BITMAP
0600
0600
0600
0600
0600
0600
0600
0600
0600
FFF0
0000
0000
FFF0
0000
0000
0000
0000
0000
0000
0000
0000
0000
ENDCHAR
STARTCHAR char9552
ENCODING 9576
SWIDTH 631 0
DWIDTH 12 0
BBX 12 22 0 -5
BITMAP
0900
0900
0900
0900
0900
0900
0900
0900
0900
0900
FFF0
FFF0
0000
0000
0000
0000
0000
0000
0000
0000
0000
0000
ENDCHAR
STARTCHAR char9552
ENCODING 9577
SWIDTH 631 0
DWIDTH 12 0
BBX 12 22 0 -5
BITMAP
0900
0900
0900
0900
0900
0900
0900
0900
0900
F9F0
0000
0000
FFF0
0000
0000
0000
0000
0000
0000
0000
0000
0000
ENDCHAR
STARTCHAR char9552
ENCODING 9578
SWIDTH 631 0
DWIDTH 12 0
BBX 12 22 0 -5
BITMAP
0600
0600
0600
0600
0600
0600
0600
0600
0600
FFF0
0600
0600
FFF0
0600
0600
0600
0600
0600
0600
0600
0600
0600
ENDCHAR
STARTCHAR char9552
ENCODING 9579
SWIDTH 631 0
DWIDTH 12 0
BBX 12 22 0 -5
BITMAP
0900
0900
0900
0900
0900
0900
0900
0900
0900
0900
FFF0
FFF0
0900
0900
0900
0900
0900
0900
0900
0900
0900
0900
ENDCHAR
STARTCHAR char9552
ENCODING 9580
SWIDTH 631 0
DWIDTH 12 0
BBX 12 22 0 -5
BITMAP
0900
0900
0900
0900
0900
0900
0900
0900
0900
F9F0
0000
0000
F9F0
0900
0900
0900
0900
0900
0900
0900
0900
0900
ENDCHAR
STARTCHAR char13
ENCODING 9581
SWIDTH 631 0
DWIDTH 12 0
BBX 12 22 0 -5
BITMAP
0000
0000
0000
0000
0000
0000
0000
0000
0000
0000
0070
01F0
0380
0300
0600
0600
0600
0600
0600
0600
0600
0600
ENDCHAR
STARTCHAR char13
ENCODING 9582
SWIDTH 631 0
DWIDTH 12 0
BBX 12 22 0 -5
BITMAP
0000
0000
0000
0000
0000
0000
0000
0000
0000
0000
E000
F800
1C00
0C00
0600
0600
0600
0600
0600
0600
0600
0600
ENDCHAR
STARTCHAR char13
ENCODING 9583
SWIDTH 631 0
DWIDTH 12 0
BBX 12 22 0 -5
BITMAP
0600
0600
0600
0600
0600
0600
0600
0600
0C00
1C00
F800
E000
0000
0000
0000
0000
0000
0000
0000
0000
0000
0000
ENDCHAR
STARTCHAR char13
ENCODING 9584
SWIDTH 631 0
DWIDTH 12 0
BBX 12 22 0 -5
BITMAP
0600
0600
0600
0600
0600
0600
0600
0600
0300
0380
01F0
0070
0000
0000
0000
0000
0000
0000
0000
0000
0000
0000
ENDCHAR
STARTCHAR ltshade
ENCODING 9617
SWIDTH 631 0
DWIDTH 12 0
BBX 12 22 0 -5
BITMAP
AAA0
0000
AAA0
0000
AAA0
0000
AAA0
0000
AAA0
0000
AAA0
0000
AAA0
0000
AAA0
0000
AAA0
0000
AAA0
0000
AAA0
0000
ENDCHAR
STARTCHAR shade
ENCODING 9618
SWIDTH 631 0
DWIDTH 12 0
BBX 12 22 0 -5
BITMAP
3330
CCC0
3330
CCC0
3330
CCC0
3330
CCC0
3330
CCC0
3330
CCC0
3330
CCC0
3330
CCC0
3330
CCC0
3330
CCC0
3330
CCC0
ENDCHAR
STARTCHAR dkshade
ENCODING 9619
SWIDTH 631 0
DWIDTH 12 0
BBX 12 22 0 -5
BITMAP
FFF0
AAA0
FFF0
AAA0
FFF0
AAA0
FFF0
AAA0
FFF0
AAA0
FFF0
AAA0
FFF0
AAA0
FFF0
AAA0
FFF0
AAA0
FFF0
AAA0
FFF0
AAA0
ENDCHAR
STARTCHAR blackdiamond
ENCODING 9670
SWIDTH 631 0
DWIDTH 12 0
BBX 12 22 0 -5
BITMAP
0000
0000
0000
0000
0000
0600
0F00
1F80
3FC0
7FE0
FFF0
FFF0
7FE0
3FC0
1F80
0F00
0600
0000
0000
0000
0000
0000
ENDCHAR
STARTCHAR char65534
ENCODING 65533
SWIDTH 631 0
DWIDTH 12 0
BBX 12 22 0 -5
BITMAP
0000
0000
7FE0
7FE0
6060
6060
6060
6060
6060
6060
6060
6060
6060
6060
6060
7FE0
7FE0
0000
0000
0000
0000
0000
ENDCHAR
ENDFONT
